<svg id="Layer_1" data-name="Layer 1" xmlns="http://www.w3.org/2000/svg" viewBox="0 0 254.14 107.72"><path d="M426.8,54.71a1.12,1.12,0,0,0-1.13-.59c-.05,0-.57.24-1.56.7s-2.29,1.07-3.92,1.79-3.53,1.51-5.68,2.34-4.41,1.61-6.77,2.33a70.57,70.57,0,0,1-7.08,1.79,34.45,34.45,0,0,1-6.73.7h-2.6a17.51,17.51,0,0,1-2.88-.23,5.25,5.25,0,0,1-2.3-.94,2.44,2.44,0,0,1-.93-2.1l3.11-.39a34.82,34.82,0,0,0,3.89-.7,41.05,41.05,0,0,0,4-1.16,16.35,16.35,0,0,0,3.61-1.75,9.43,9.43,0,0,0,2.57-2.45,5.46,5.46,0,0,0,1-3.19,6,6,0,0,0-.62-2.76,6.11,6.11,0,0,0-1.67-2,8.41,8.41,0,0,0-2.41-1.28,8.53,8.53,0,0,0-2.77-.47,14.65,14.65,0,0,0-6.14,1.52,25.29,25.29,0,0,0-6.07,4,23.07,23.07,0,0,0-4.63,5.48l-.41.73h0c-1.92,1.12-4.21,2.32-6.85,3.62a74.32,74.32,0,0,1-8.48,3.5,26.19,26.19,0,0,1-8.56,1.55,4.2,4.2,0,0,1-2.6-.73,3,3,0,0,1-1-2.53c0-1.71.85-3.74,2.53-6.07a64,64,0,0,1,6.3-7.31q3.78-3.81,8.21-7.7t8.21-7.28q3.76-3.37,6.3-6.07c1.68-1.78,2.53-3.12,2.53-4,0-.62-.41-1.09-1.21-1.4a5.73,5.73,0,0,0-1.9-.47A10.54,10.54,0,0,0,376.47,23a39.53,39.53,0,0,0-6.07,4.9q-3.15,3-6.5,6.88T357,42.65q-3.54,4-7.35,7.82a64.71,64.71,0,0,1-7.86,6.73,36.79,36.79,0,0,1-8.32,4.55,21.61,21.61,0,0,1-8.87,1.4c.57-1,1.22-2.18,1.94-3.58s1.42-2.85,2.07-4.36,1.2-3,1.67-4.43A12.58,12.58,0,0,0,331,47a5.88,5.88,0,0,0-.35-1.87,5.59,5.59,0,0,0-1-1.83,5.48,5.48,0,0,0-1.87-1.36,6.63,6.63,0,0,0-2.8-.54,11.07,11.07,0,0,0-5.13,1.86,73,73,0,0,0-6.69,4.48q-3.51,2.61-6.77,5.44T301,58a14.2,14.2,0,0,1,1.17-1.59q.86-1.05,2-2.37c.75-.88,1.52-1.82,2.3-2.8s1.5-1.92,2.18-2.8A26.27,26.27,0,0,0,310.27,46a3.93,3.93,0,0,0,.66-1.68,2.9,2.9,0,0,0-1.05-2.14,3.27,3.27,0,0,0-2.22-1,3.18,3.18,0,0,0-1.51.39,7.84,7.84,0,0,0-1.83,1.52,37.38,37.38,0,0,0-2.65,3.15c-1,1.35-2.36,3.08-4,5.21-.6.81-1.27,1.72-2,2.74q-1,.31-3,1c-1.51.52-3.23,1-5.18,1.6s-4,1-6.06,1.4a32.28,32.28,0,0,1-5.88.58,6.33,6.33,0,0,1-3.81-1,7.84,7.84,0,0,1-2.26-2.53,15.15,15.15,0,0,1-1.36-3.3,19.26,19.26,0,0,0-1.24-3.31,8.21,8.21,0,0,0-1.87-2.53,4.57,4.57,0,0,0-3.15-1,13.32,13.32,0,0,0-4.9,1.09,34.77,34.77,0,0,0-5.56,2.88,46.62,46.62,0,0,0-5.56,4.12c-.43.37-.85.74-1.25,1.11l-.93.6q-1.17.78-3.15,2c-1.32.78-2.86,1.63-4.59,2.56A53.09,53.09,0,0,1,230.45,62a46.49,46.49,0,0,1-6,2,24.94,24.94,0,0,1-6.07.77c-1.61,0-2.63-.35-3.07-1.05a3.19,3.19,0,0,1-.08-2.8,17.31,17.31,0,0,1,2.1-4,49.74,49.74,0,0,1,3.54-4.63q2-2.37,4.24-4.71c1.48-1.55,2.88-3,4.2-4.24s2.46-2.34,3.42-3.23,1.57-1.42,1.83-1.63q2,.47,3.54.93a8.24,8.24,0,0,0,2.22.47q.76,0,2.1-.12a14.31,14.31,0,0,0,2.6-.46,7.66,7.66,0,0,0,2.26-1,2,2,0,0,0,1-1.68c0-.77-.77-1.4-2.3-1.86a31.9,31.9,0,0,0-5.48-1.09q4.2-3.42,7.08-6.19T250.41,23a1.25,1.25,0,0,0-.35-.9,3.27,3.27,0,0,0-.82-.58,3.13,3.13,0,0,0-1-.31,5.35,5.35,0,0,0-3.89.82,28.56,28.56,0,0,0-4,2.52c-1.47,1.09-3,2.37-4.7,3.82s-3.37,3-5.14,4.74c-.72,0-1.88,0-3.46,0s-3.33.09-5.25.2-3.91.28-6,.54a50.92,50.92,0,0,0-5.64,1A15.87,15.87,0,0,0,206,36.5a2.79,2.79,0,0,0-1.63,2.38,2.5,2.5,0,0,0,1.12,2.18,4.23,4.23,0,0,0,2.45.77,3,3,0,0,0,1.29-.27c.39-.18.79-.35,1.2-.5a29.27,29.27,0,0,1,7-2,76,76,0,0,1,8.06-.93c-.42.42-.78.8-1.09,1.17s-.63.75-.94,1.16L216,44.75Q212.05,47,208.32,49l-7.08,3.89q-3.35,1.83-5.91,3.11T191.25,58c-1,.44-1.57.61-1.67.5a4.73,4.73,0,0,1-.67-1.36c-.07-.34-.27-1-.58-1.91-.15-.41,0-.82.62-1.24l2-1.4A15.63,15.63,0,0,0,193,50.78a3.34,3.34,0,0,0,1-2.41,5,5,0,0,0-1.4-3.81,4.61,4.61,0,0,0-3.26-1.33,11.72,11.72,0,0,0-4.05.63,9.45,9.45,0,0,0-2.88,1.59,6.12,6.12,0,0,0-1.71,2.18,5.93,5.93,0,0,0-.54,2.45,35.85,35.85,0,0,0,.35,5.52c.23,1.51.48,2.75.73,3.74a14.53,14.53,0,0,0,1.09,2.87,19,19,0,0,0-6.84,4.13,7.22,7.22,0,0,0-2.49,5,5.48,5.48,0,0,0,2.18,4.52,7.84,7.84,0,0,0,5,1.71,10.64,10.64,0,0,0,4-.82,15,15,0,0,0,3.7-2.14,11.63,11.63,0,0,0,2.72-3,6.62,6.62,0,0,0,1-3.5,6.86,6.86,0,0,0-.16-1.56c-.1-.47-.19-.88-.27-1.24a2.18,2.18,0,0,1,0-.9.69.69,0,0,1,.47-.5c.36-.16,1.14-.56,2.33-1.21l4.59-2.49q2.8-1.51,6.58-3.62t8.28-4.51A32,32,0,0,0,209.84,58,13.94,13.94,0,0,0,208.36,64a6.41,6.41,0,0,0,2.14,4.79q2.1,1.94,7.24,1.94a21.71,21.71,0,0,0,5.17-.74,61.75,61.75,0,0,0,6.3-1.94,70.37,70.37,0,0,0,6.57-2.8l1-.5a7.09,7.09,0,0,0-.35,2.09,5.13,5.13,0,0,0,1.28,3.5,3.92,3.92,0,0,0,3.07,1.48,9.38,9.38,0,0,0,3-.74A39.72,39.72,0,0,0,248,69.18q2.28-1.22,4.82-2.65c1.68-1,3.29-1.9,4.82-2.84s2.93-1.8,4.2-2.6,2.27-1.42,3-1.83a11.93,11.93,0,0,0,4.74,4.32,14.36,14.36,0,0,0,6.15,1.28,37.39,37.39,0,0,0,5.6-.39,38.28,38.28,0,0,0,5-1.09,38,38,0,0,0,3.8-1.32l-2.29,3.34Q285,69.61,282.22,74c-1.86,2.91-3.53,5.65-5,8.25s-2.69,4.9-3.62,6.92a12.42,12.42,0,0,0-1.4,4.51,3.86,3.86,0,0,0,.66,2.41,2.35,2.35,0,0,0,2,.86,10.27,10.27,0,0,0,1.13-.08,2.36,2.36,0,0,0,.9-.23,6.7,6.7,0,0,0,1.55-2q1.17-1.81,2.88-4.55c1.14-1.81,2.43-3.83,3.85-6.06s2.95-4.45,4.55-6.65,3.24-4.3,4.9-6.27a34.73,34.73,0,0,1,4.83-4.82,11.59,11.59,0,0,0,2.84,2.92,16.74,16.74,0,0,0,3.46,1.94,17.57,17.57,0,0,0,3.5,1,16.54,16.54,0,0,0,2.95.31,8.07,8.07,0,0,0,3-.46c.78-.31,1.58-.68,2.41-1.09a16.21,16.21,0,0,1,2.88-1.09,16.43,16.43,0,0,1,4.36-.47,20.24,20.24,0,0,0,4.82-.62,38.28,38.28,0,0,0,5.21-1.67A48.2,48.2,0,0,0,340,64.63q2.57-1.41,4.83-2.88c0,3,.81,5.2,2.45,6.73a9.66,9.66,0,0,0,6.88,2.29,21.9,21.9,0,0,0,5.13-.74,52.17,52.17,0,0,0,6.31-2q3.25-1.24,6.57-2.76a52.5,52.5,0,0,0,5.17-2.72A7,7,0,0,0,378.57,66,8.43,8.43,0,0,0,382,68.71,15.23,15.23,0,0,0,386.62,70a42.06,42.06,0,0,0,5.13.32,38.24,38.24,0,0,0,4.9-.47c2.18-.31,4.57-.77,7.16-1.36s5.28-1.33,8.05-2.18a56.18,56.18,0,0,0,7.51-2.88A25,25,0,0,0,424.89,60a5.3,5.3,0,0,0,2.18-4A3,3,0,0,0,426.8,54.71ZM390,52.37c.58-.38,1.17-.75,1.79-1.08a13.5,13.5,0,0,1,1.91-.86,5.19,5.19,0,0,1,1.67-.35,3.08,3.08,0,0,1,.51,0c.18,0,.27.17.27.43,0,.46-.32.88-1,1.24a11,11,0,0,1-2.26.93,18.63,18.63,0,0,1-2.49.59,12.18,12.18,0,0,1-1.75.19A6.85,6.85,0,0,1,390,52.37ZM182.11,70.89a1.88,1.88,0,0,1-1.4,1c-.62,0-.94-.15-.94-.47s.33-.86,1-1.36a5.54,5.54,0,0,1,1.83-1A2.14,2.14,0,0,1,182.11,70.89Zm64.25-7.74a25.67,25.67,0,0,1,3-4.16A23.68,23.68,0,0,1,253,55.68a17.41,17.41,0,0,1,3.89-2.18,10.35,10.35,0,0,1,3.78-.78h1.09a3,3,0,0,1,.93.16ZM319,59.06q-2.41,3-5,3c-.31,0-.76,0-1.36-.08a12,12,0,0,1-1.87-.31A8.18,8.18,0,0,1,309,61a4,4,0,0,1-1.44-1.24q1.94-1.8,3.89-3.43a41.48,41.48,0,0,1,3.81-2.88,22.35,22.35,0,0,1,3.65-2,9.07,9.07,0,0,1,3.43-.74A17.5,17.5,0,0,1,319,59.06Z" transform="translate(-172.93 -21.14)" style="fill:#fffae7"/><path d="M195.84,117a4.29,4.29,0,0,0,2.06-1.68,4.87,4.87,0,0,0,.73-2.7,5.14,5.14,0,0,0-1.69-4,5.8,5.8,0,0,0-4.15-1.59h-6.66v21.76h7.47a6.47,6.47,0,0,0,4.71-1.82,6.09,6.09,0,0,0,1.91-4.61,5.46,5.46,0,0,0-1.14-3.53A5.33,5.33,0,0,0,195.84,117Zm-7.27-7.68h4.09a3.53,3.53,0,0,1,2.53,1,3.21,3.21,0,0,1,1,2.43,3.3,3.3,0,0,1-1,2.47,3.54,3.54,0,0,1-2.54,1h-4.06Zm8,16.08a4.29,4.29,0,0,1-3.1,1.19h-4.88v-8.25h4.85a4.31,4.31,0,0,1,3.11,1.16,3.8,3.8,0,0,1,1.25,2.9A4,4,0,0,1,196.55,125.43Z" transform="translate(-172.93 -21.14)" style="fill:#fffae7"/><path d="M232.49,107.1l-9.2,21.76h2.62l2.24-5.37H238.7l2.25,5.37h2.63l-9.21-21.76Zm-3.4,14.14,4.33-10.37,4.35,10.37Z" transform="translate(-172.93 -21.14)" style="fill:#fffae7"/><polygon points="111.41 85.96 108.41 85.96 97.95 97.5 97.95 85.96 95.52 85.96 95.52 107.72 97.95 107.72 97.95 100.66 101.11 97.23 108.73 107.72 111.66 107.72 102.74 95.44 111.41 85.96" style="fill:#fffae7"/><polygon points="138.78 97.35 148.05 97.35 148.05 95.11 138.78 95.11 138.78 88.2 148.65 88.2 148.65 85.96 136.34 85.96 136.34 107.72 148.88 107.72 148.88 105.48 138.78 105.48 138.78 97.35" style="fill:#fffae7"/><path d="M360.15,117.39a6.54,6.54,0,0,0,1.14-3.79,6.14,6.14,0,0,0-1.91-4.64,6.37,6.37,0,0,0-4.62-1.86h-7.43v21.76h2.43v-8.62h4.94l4.9,8.62h2.79l-5.26-9.09A6.29,6.29,0,0,0,360.15,117.39Zm-5.64.6h-4.75v-8.64h4.91a4,4,0,0,1,3,1.21,4.21,4.21,0,0,1,1.19,3,4.27,4.27,0,0,1-1.25,3.14A4.11,4.11,0,0,1,354.51,118Z" transform="translate(-172.93 -21.14)" style="fill:#fffae7"/><polygon points="220.36 96.39 214.14 85.96 211.46 85.96 219.11 98.78 219.11 107.72 221.55 107.72 221.55 98.78 229.14 85.96 226.5 85.96 220.36 96.39" style="fill:#fffae7"/></svg>