<svg id="Layer_1" data-name="Layer 1" xmlns="http://www.w3.org/2000/svg" viewBox="0 0 106.76 153.89"><path d="M122.22,164.46l0,0,0,0,0,0c-.74.87-1,1.35-1,1.68s.26.46.75.78c-.87,0-1.57-.08-2.15.72a5.24,5.24,0,0,1-.94.81,13.43,13.43,0,0,0-1.13.8,15.18,15.18,0,0,0-4.89,5.91,26.18,26.18,0,0,0-1.15,3.29c-.31,1.13-.51,2.17-.71,3.29a29.48,29.48,0,0,0,0,5.94c-.18.06-.28.22-.19.51,0,.07.12.11.19.17,0-.23,0-.45,0-.68.33.58,1,1.17,0,1.51-.29.1-.91-.81-.81.42a1.62,1.62,0,0,0,1,1.52c.14.06.29-.61.43.09.07.31.1.77-.13.83-1.58.36-.39,1.15.11,1.8h0a4,4,0,0,0,.46,1.07,4.88,4.88,0,0,1,1.29,2.27,21,21,0,0,0,.86,2.5c.51,1,.6,2.31,1.51,3.11a.82.82,0,0,1,.34.77c0,1.68,1.08,2.91,2,4,.47.58.44,1.13.76,1.68,1,1.62,1.78,3.36,2.59,5.08.33.69.22,1.56,1,2.07v0a30,30,0,0,1,3.09,5.54c1.3,2.5,3.44,4.26,4.67,6.68a6.58,6.58,0,0,0,2.22,2.13c2.33,1.56,4.63,3.19,7.27,3.62a20.92,20.92,0,0,0,7.6-.19,9.09,9.09,0,0,0,3.93-2.13c1.14-1,2.11-2,3.28-3,2.49-2,4.11-5.1,5.28-8.23a16.87,16.87,0,0,0,.87-5.4c0-1.83,0-3.65.08-5.5.3-4.24-.51-8.58-1-13-.06-.52-.48-1.07.31-1.36.44-.15.28-.75-.29-.79-.28,0-.72,0-.64-.33.27-1.12-.84-2.32-.71-2.69.58-1.92-1-3-1.51-4.47-.71-2.16-2.19-3.91-2.49-6.35-.13-1-1.49-2-2.32-3a42.35,42.35,0,0,1-3.15-4.28c-.45-.77-1.16-.46-1.65-1.06-1.48-1.8-3.51-3.1-5.2-4.65-1.25-1.13-2.65-1.1-4-1.5-1.12-.34-2.24-.65-3.38-.89a35.09,35.09,0,0,0-3.48-.53,17.92,17.92,0,0,0-5,0c-.18,0-.33.09-.49.13a1.7,1.7,0,0,0-.36.16,1.46,1.46,0,0,0-.54.51,4.49,4.49,0,0,0-.6,1.94,13.21,13.21,0,0,0,.41,4.83,23.16,23.16,0,0,0,2,4.69c1.2,2.2,2.73,4.44,3.9,6.66,2.43,4.61,5.13,9.05,7.57,13.61,1.31,2.44,2.73,4.89,5.31,6.14a1.22,1.22,0,0,1,.66,1.11c.31,3.18,2.52,5.19,4.81,7.13a15.36,15.36,0,0,1,3.7,4.27,8.43,8.43,0,0,1,.95,2.88,6.49,6.49,0,0,1-.37,3.14,8.15,8.15,0,0,0-.49,2.49c-.07.82-.12,1.66-.25,2.41-.46,2.53-1.82,4.34-1.83,6.51.08,1.21-.43,1.14-.92,1.34s-1.17-.4-1.33-1.61a11.82,11.82,0,0,1,.29-4.05c.26-1.23.57-2.35.75-3.4a7.73,7.73,0,0,0,.1-2.81,10.28,10.28,0,0,0-.82-2.6A27.06,27.06,0,0,0,145,215c-1.56-1.91-3.14-3.93-4.58-6-2.93-4.09-5.56-8.36-8.05-12.68-3.22-5.62-6.08-11.34-9-17.1a34.05,34.05,0,0,1-1.77-4.15,17.75,17.75,0,0,1-.95-4.71,12.63,12.63,0,0,1,.59-5.11,6.13,6.13,0,0,1,.31-.71,5.06,5.06,0,0,1,.43-.72,4.91,4.91,0,0,1,1.28-1.29,5.24,5.24,0,0,1,.79-.46,6,6,0,0,1,.82-.3,8.59,8.59,0,0,1,1.4-.27,18.83,18.83,0,0,1,4.22.11l1.94.29c.62.11,1.26.23,1.93.37a30.69,30.69,0,0,1,7.48,2.71,32.23,32.23,0,0,1,6.53,4.49,38.93,38.93,0,0,1,5.24,5.81A48.9,48.9,0,0,1,159.44,186a86.7,86.7,0,0,1,3.67,11.42,69.09,69.09,0,0,1,2.39,15.93,28.62,28.62,0,0,1-2.91,12.09,23.33,23.33,0,0,1-4.08,6.16,21,21,0,0,1-5.91,4.49,19.86,19.86,0,0,1-14.45,1.65,23.05,23.05,0,0,1-10.79-7.33,62.22,62.22,0,0,1-7-10.56,160.28,160.28,0,0,1-7.33-14.8c-1.38-3.2-2.76-6.46-3.86-9.83-.34-1.05-.5-2.1-.73-3.13a47.07,47.07,0,0,1-1.22-8.57c0-.73,0-1.44,0-2.2l0-1.19.15-1.16a22.75,22.75,0,0,1,1.23-4.47,4.77,4.77,0,0,1,.71-1.37,45.76,45.76,0,0,0,4.39-5.63,10.24,10.24,0,0,1,.76-.85,8,8,0,0,1,.86-.68,10.12,10.12,0,0,1,1.86-1.06c.64-.3,1.32-.5,2-.75s1.32-.42,2-.63C122.09,163.24,123.63,163.25,122.22,164.46ZM110,186.23c-.27.22-.18.55-.12.84,0,.07.11.13.17.19.07-.27.15-.53.2-.8C110.21,186.43,110,186.3,110,186.23Zm.44-7.31a1.4,1.4,0,0,0-.55.9,3.34,3.34,0,0,0-.06,1.14,2.07,2.07,0,0,0,.23.58c-.21.47-.14.78.25.91.11,0,.25.29.31,0,.11-.54-.23-.75-.44-1a1.33,1.33,0,0,0,.6-1,7.33,7.33,0,0,0,.06-1.25C110.8,179.07,110.49,178.85,110.39,178.92Zm.5-1.35s-.09,0-.1.08,0,.08,0,.13l.12-.13Zm1.64-4.37c-.2-.07-.47.19-.49.37-.12,1-.92,2-1,3.16a3,3,0,0,0,1.16-1.32,4.86,4.86,0,0,0,.26-.76l.24-.78C112.8,173.6,112.78,173.28,112.53,173.2Zm4.43-4.57a16.74,16.74,0,0,0-1.81,1C116.19,169.54,116.56,169.39,117,168.63Zm1.56-1.5a3,3,0,0,0-.53.17,2.55,2.55,0,0,0-.38.36,1.55,1.55,0,0,0,.56.08C118.42,167.67,118.48,167.45,118.52,167.13Zm1.56-1.29s0,0-.08,0-.07,0-.11,0l0,.1A2,2,0,0,1,120.08,165.84Z" transform="translate(-107.23 -84.51)" style="fill:#010101"/><path d="M112.5,193.91a1,1,0,0,0-.2-.66c-.44-.23-.39.45-.63.63C111.94,193.8,112.32,194.46,112.5,193.91Z" transform="translate(-107.23 -84.51)" style="fill:#010101"/><polygon points="15.77 80.63 15.88 80.65 15.89 80.57 15.77 80.63" style="fill:#010101"/><polygon points="15.29 81.87 15.39 81.86 15.34 81.79 15.29 81.87" style="fill:#010101"/><polygon points="15.24 131.98 15.22 131.97 15.24 132 15.24 131.98" style="fill:#010101"/><polygon points="15.27 131.91 15.24 131.98 15.35 132.01 15.27 131.91" style="fill:#010101"/><path d="M147.37,233.61l0,0,0,0,0,0c-1.31.55-1.35.54-1.88,1.37,0-.42.14-.75-.39-.66s-.63-.22-.84-.44c-.61-.62-1.08-1.35-1.76-1.94a2.79,2.79,0,0,1-1.22-2,15.78,15.78,0,0,0-.46-1.83c.2-.11.29-.21.2-.26s-.12,0-.18,0l0,.23c-.37,0-1,0,0-.52.31-.17.9-.14.88-.52s-.41-.23-1-.08c-.15,0-.38.35-.45.15s0-.25.23-.36c1.71-.82.57-.59.16-.65h0c-.1-.08-.11-.23-.31-.23-1.2,0-.76-.76-1.14-1.14s0-.77-.66-.81c-.21,0-.24-.07-.11-.22.63-.74-.1-.92-.63-1.14-.27-.11,0-.37-.13-.51a3.27,3.27,0,0,1-.59-1.5c0-.22.45-.64-.14-.64h0c-.72-.33-.65-1-.77-1.59-.17-.79-1.45-1-1-2.09.16-.37-.17-.58-.46-.75-.8-.51-.87-1.38-1.52-1.92a3.52,3.52,0,0,1-1.07-2c-.27-.9-1.94-.6-2.14-1.52a6.41,6.41,0,0,0-1.56-2.36c-.64-.86-2.32-.59-2.81-1.65-.57-1.22-1.55-2.07-2-3.54,0-.17-.4-.06.3-.85.39-.45.26-.56-.24-.11-.24.22-.64.61-.55.39.27-.72-.62-.4-.49-.68.69-1.41-.64-.68-.86-1.13-.31-.62-1.3-.66-.84-2,.19-.53-.7-.37-1-.61a1.57,1.57,0,0,1-.7-1.48c0-.34-.7.07-.74-.2-.12-.76-.67-1.32-.42-2.21.18-.62-.64-.61-.94-.95a8.55,8.55,0,0,1-1.1-1.89c-.95-2-1.1-4.14-1.46-6.23a14,14,0,0,1-.5-2.27,15.8,15.8,0,0,1,.32-4.61,1.89,1.89,0,0,0-.76-2.5c-.22-.17-.09-.28.16-.37,1.61-.6,1.23-1.5,1-2.43-.36-1.1-.31-2.12,1.55-2.67.77-.23.48-.75.45-1.18a2.78,2.78,0,0,1,.91-1.85c.26-.33.76-.12,1.27,0,.68.14.8.36.74.61a28.34,28.34,0,0,0-.41,3.9c-.2,2.73-.43,5.4-.45,8,0,1.68,0,3.33.1,5a29.45,29.45,0,0,0,.61,4.21,18.71,18.71,0,0,0,2.94,6.72,23.65,23.65,0,0,0,4.13,4.65,15.5,15.5,0,0,0,3.78,2.35c1.07.48,1.65,1.56,2.5,2.36a12,12,0,0,1,2.42,3.39c.66,1.24,1.21,2.5,1.89,3.65,1.25,2.08,2.34,4.21,3.4,6.3a35,35,0,0,1,1.56,4.33,13.6,13.6,0,0,0,1.31,2.51,8.36,8.36,0,0,1,.25.81,12.75,12.75,0,0,0,2.26,3.78c.08.08.23.16.16.32-.42,1,.34,1.21,1,1.36.82.23.53,1.24,1,1.72C148.26,232.8,148.21,233.38,147.37,233.61Zm-5.49-5.51c.28-.21.18-.26.13-.33s-.12,0-.18,0-.16.25-.21.36Zm.73,2.11c.4-.44.19-.59,0-.74-.05,0-.23,0-.35,0,.15-.25,0-.29-.36-.11-.12,0-.29.06-.3.17s.32.08.58,0c-.66.59-.27.71,0,.86A1.13,1.13,0,0,0,142.61,230.21Zm.12.45s.06-.06.05-.07h-.08l0,.09Zm1.17.94c.18-.14.21-.29.11-.28-.58.05-.5-.45-1-.5-.58.8,0,.86.38,1A.69.69,0,0,0,143.9,231.6Zm1.08,1.61,0-.74C144.58,233.05,144.51,233.28,145,233.21Zm.74.21c0-.06,0-.15,0-.2s-.12,0-.18,0a1.38,1.38,0,0,0-.2.33C145.32,233.62,145.48,233.56,145.72,233.42Zm.73.12.05-.06s0,0,0,0l-.07,0Z" transform="translate(-107.23 -84.51)" style="fill:#010101"/><path d="M139.8,226.49c-.07.07,0,.19.11.17.43-.09.48-.33.77-.5C140.38,226.3,140.08,226.2,139.8,226.49Z" transform="translate(-107.23 -84.51)" style="fill:#010101"/><polygon points="39.62 149.82 39.61 149.88 39.66 149.83 39.62 149.82" style="fill:#010101"/><polygon points="38.69 150.39 38.7 150.42 38.75 150.36 38.69 150.39" style="fill:#010101"/><polygon points="29.75 135.46 29.77 135.45 29.76 135.45 29.75 135.46" style="fill:#010101"/><polygon points="29.69 135.5 29.75 135.46 29.66 135.47 29.69 135.5" style="fill:#010101"/><path d="M196.35,110.57v0c-1.63.9-1.58.9-1.31,2-.51-.49-.86-.86-1.57-.63a5,5,0,0,1-1.9-.12,10,10,0,0,0-5.27.4,17.44,17.44,0,0,0-2.15,1.1L182,114.63a20,20,0,0,0-3.27,2.67c-.11-.06-.24,0-.35.14a.32.32,0,0,0,0,.17l.37-.3c-.17.43-.25,1-.82.68-.17-.09.08-.82-.55-.21a1.27,1.27,0,0,0-.42,1.21c0,.1.44-.14.12.25-.15.18-.38.4-.5.32-.78-.61-.75.34-.92.88h0a3.67,3.67,0,0,0-.41.72c-.21,1.24-1.23,2.14-1.81,3.24a8.25,8.25,0,0,0-1.17,2.16.79.79,0,0,1-.3.52,6,6,0,0,0-1.51,2.81,11.93,11.93,0,0,1-.62,1.14c-.56,1.21-1.17,2.42-1.76,3.62a4.08,4.08,0,0,0-.68,1.46v0c-.39,1.43-1.09,2.87-1.57,4.18-.7,1.87-.93,3.83-1.68,5.68a10.59,10.59,0,0,0-.47,2.24c-.28,2.1-.7,4.19-.81,6.29s-.24,4.06-.27,6.07c0,2.39.57,4.54.84,6.91a33.23,33.23,0,0,0,1.83,7.3,14.55,14.55,0,0,0,4.38,6.23,6.08,6.08,0,0,0,3.49,1.52,27.58,27.58,0,0,0,4.3-.16c.35,0,.73-.43.92.5.1.52.53.46.55-.2,0-.33,0-.87.22-.74.78.47,1.55-.72,1.81-.5a1.18,1.18,0,0,0,1.71.07c.22-.19.43-.44.63-.65a1.41,1.41,0,0,1,.66-.5c1.54-.35,2.35-2.08,4.58-1.12,1,.39,1.3-1.26,1.93-1.9a5.1,5.1,0,0,1,3.32-1.63c.7-.07,0-1.35.47-1.53A8.22,8.22,0,0,0,196.3,173a7.25,7.25,0,0,1,2.31-1.09c1.37-.31,1-1.83,1.45-2.66.79-1.46,1.72-2.78,2.49-4.2a68.94,68.94,0,0,0,3.12-6.48,34,34,0,0,0,2-6.95,24.88,24.88,0,0,0,.16-2.61c0-.88,0-1.74.1-2.59a88.18,88.18,0,0,0-.08-10.53,9.39,9.39,0,0,0-.4-2.8,4.65,4.65,0,0,0-1.76-2.34c-.34-.23-.29-.52-.11-.88a3.81,3.81,0,0,0,.28-3.13,10.3,10.3,0,0,0-1.47-2.67,13.38,13.38,0,0,1-1.69-3,8.1,8.1,0,0,1-.47-3.52c.05-1.16-1-1.76-1.77-2.29a36,36,0,0,0-3.76-2.68c-.83-.39-.52-.87-.44-1.38.09-.69.65-.75,1.4-.54a13.86,13.86,0,0,1,4.91,2.74,20.38,20.38,0,0,1,3.63,4,30.82,30.82,0,0,1,2.73,4.87c.76,1.65,1.46,3.34,2.06,5.06a56.2,56.2,0,0,1,2.58,10.68,48.31,48.31,0,0,1-.2,14.45,46,46,0,0,1-3.9,12.26,44.46,44.46,0,0,1-6.24,9.68,34.15,34.15,0,0,1-8.87,7.36,26.64,26.64,0,0,1-8.5,3.21,42.73,42.73,0,0,1-8.9.7,18.35,18.35,0,0,1-6-.8,10.3,10.3,0,0,1-4.83-3.76c-1.75-2.43-2.42-5.29-3.18-7.95a54.83,54.83,0,0,1-1.44-19.29,68.12,68.12,0,0,1,3.9-17.07,74.42,74.42,0,0,1,4.94-10.59c1.18-2.13,2.37-4.3,3.69-6.4.42-.65.9-1.22,1.34-1.81a35.87,35.87,0,0,1,4-4.6c.74-.71,1.5-1.4,2.31-2a16.82,16.82,0,0,1,2.7-1.83,2.78,2.78,0,0,1,1-.41,27.4,27.4,0,0,0,5.09-.89,6.11,6.11,0,0,1,3,.2c.93.26,1.78.65,2.71.84C196.82,109.45,197.68,110.13,196.35,110.57Zm-17.3,5.54c-.23,0-.37.14-.5.31s0,.11,0,.17c.17-.09.35-.16.52-.26S179.05,116.18,179.05,116.11Zm4.18-3.23a1.78,1.78,0,0,0-1.39.73,1.51,1.51,0,0,0-.21.4c-.35.09-.49.27-.39.54,0,.07-.05.25.14.15.35-.18.32-.44.37-.69.68.16,1.1-.36,1.57-.8C183.37,113.16,183.31,112.89,183.23,112.88Zm.91-.46s-.07,0-.09,0,0,.06,0,.09h.13Zm2.92-1.46a.32.32,0,0,0-.44-.07c-.54.5-1.43.59-2,1.18a2.77,2.77,0,0,0,2.21-.63C187,111.34,187.15,111.14,187.06,111Zm4.46,0a10.73,10.73,0,0,0-1.4-.47C190.68,111,190.93,111.19,191.52,110.92Zm1.54-.11a1.31,1.31,0,0,0-.35-.19,1.26,1.26,0,0,0-.38,0c.08.13.13.3.25.37S192.88,111,193.06,110.81Zm1.46-.1s0-.06,0-.08-.05,0-.08,0l-.06.06Z" transform="translate(-107.23 -84.51)" style="fill:#010101"/><path d="M175.87,120.87a.82.82,0,0,0,.28-.4c0-.33-.38,0-.55,0C175.73,120.55,175.52,121,175.87,120.87Z" transform="translate(-107.23 -84.51)" style="fill:#010101"/><polygon points="89.27 27 89.33 27.07 89.36 27 89.27 27" style="fill:#010101"/><polygon points="88.42 27.84 88.49 27.88 88.49 27.8 88.42 27.84" style="fill:#010101"/><polygon points="60.11 51.61 60.11 51.6 60.1 51.62 60.11 51.61" style="fill:#010101"/><polygon points="60.15 51.59 60.11 51.61 60.12 51.68 60.15 51.59" style="fill:#010101"/><path d="M168.39,182.11h0c-1.27-.69-1.3-.7-2.27-.6.34-.22.65-.35.23-.68s-.25-.58-.26-.86a13.66,13.66,0,0,0,0-2.48,2.64,2.64,0,0,1,.35-2.22,10.29,10.29,0,0,0,.76-1.67c.23,0,.38,0,.33-.09a.82.82,0,0,0-.17-.09l-.16.17c-.3-.24-.86-.55.36-.38.37,0,.85.43,1.06.12s-.2-.44-.75-.64c-.15-.06-.54.06-.48-.15s.14-.2.42-.15c1.95.37.84-.14.52-.42h0c0-.12,0-.26-.12-.37-1-.68-.19-1.07-.28-1.6-.07-.36.5-.6-.06-1.06-.17-.13-.17-.2,0-.25,1-.22.47-.81.16-1.32-.15-.26.22-.31.21-.5a3.27,3.27,0,0,1,.47-1.61c.11-.21.79-.23.31-.62h0c-.34-.74.17-1.29.48-1.8.42-.73-.32-1.89.81-2.36.39-.16.33-.57.28-.93-.1-1,.58-1.72.72-2.65a3.92,3.92,0,0,1,1.37-2.24c.75-.73,0-2.32,1-3a16.26,16.26,0,0,0,2.4-2.36c.88-.8.7-2.39,1.72-2.9s1.84-1.46,3-2c.15-.07,0-.34.79.06.46.23.54.08,0-.22-.24-.15-.65-.38-.46-.36.67,0,.17-.61.44-.61,1.36.07.4-.81.69-1.16.42-.52.11-1.3,1.27-1.57.48-.11,0-.75,0-1.11a1.85,1.85,0,0,1,.7-1.36c.25-.18-.39-.43-.24-.62.42-.57.44-1.26,1-1.8.43-.39-.06-.84-.07-1.26a12.83,12.83,0,0,1,.19-2.06,30.83,30.83,0,0,1,1.63-6,12.76,12.76,0,0,1,.79-2.19,18.21,18.21,0,0,1,1.3-2,11.73,11.73,0,0,1,1.64-1.66,2.7,2.7,0,0,0,1.26-2c0-.17.14-.22.31-.22,1.15,0,1.57-.79,2.08-1.5a3.19,3.19,0,0,1,2.55-1.54c.48,0,.73-.44,1-.73a8.1,8.1,0,0,1,1.7-1.1c.34-.2.35,0,.45.08s0,.31-.18.49c-1,.88-1.89,1.83-2.77,2.79a79.38,79.38,0,0,0-5.28,6.33,15.53,15.53,0,0,0-2.22,4.28,41,41,0,0,0-1.19,4.33c-.29,1.33-.54,2.69-.82,4.08a33.24,33.24,0,0,1-1.08,4.26c-.36,1.12-.81,2.19-1.25,3.23l-.68,1.56c-.24.55-.51,1.15-.8,1.69-.76,1.47-1.6,2.83-2.19,4.3-.44,1.09-1.41,1.68-2,2.52-1.3,1.92-3.31,3.51-4.28,5.79a36.22,36.22,0,0,0-2,6.35c-.31,1.45-.92,2.82-1.33,4.27a14.1,14.1,0,0,0-.41,2.83,7.86,7.86,0,0,1-.27.82,19.54,19.54,0,0,0-.64,4.59c0,.13.06.3-.1.37-1,.48-.61,1.2-.3,1.79.42.83-.61,1.37-.69,2.08C169.58,182.32,169.1,182.66,168.39,182.11Zm-.27-7.88c.36,0,.32-.09.31-.18s-.1-.06-.16-.09l-.4.15A1.16,1.16,0,0,0,168.12,174.23Zm-.74,2.08c.6-.07.52-.33.46-.57,0-.07-.19-.15-.28-.22.28-.09.21-.19-.24-.31-.12,0-.27-.13-.35-.06s.21.26.46.39c-.93,0-.69.36-.56.64A1.35,1.35,0,0,0,167.38,176.31Zm-.2.41h.09s-.05,0-.08-.05l-.1,0Zm.27,1.46c.23,0,.36-.07.27-.13-.47-.36-.08-.67-.45-1.05-1,.2-.62.59-.37.95A.76.76,0,0,0,167.45,178.18ZM167.1,180l.51-.53C166.91,179.65,166.7,179.75,167.1,180Zm.35.68c.05,0,.14-.08.15-.14s-.06-.11-.09-.16a1.24,1.24,0,0,0-.39.07C167,180.55,167.19,180.63,167.45,180.72Zm.4.62h.08a0,0,0,0,0,0,0l-.07,0Z" transform="translate(-107.23 -84.51)" style="fill:#010101"/><path d="M167.35,171.7a.11.11,0,0,0,0,.21c.42.18.62,0,1,.05C168,171.89,167.77,171.64,167.35,171.7Z" transform="translate(-107.23 -84.51)" style="fill:#010101"/><polygon points="60.28 97.65 60.23 97.67 60.3 97.69 60.28 97.65" style="fill:#010101"/><polygon points="59.24 97.27 59.22 97.3 59.3 97.3 59.24 97.27" style="fill:#010101"/><polygon points="61.81 80.12 61.83 80.14 61.83 80.13 61.81 80.12" style="fill:#010101"/><polygon points="61.74 80.12 61.81 80.12 61.73 80.08 61.74 80.12" style="fill:#010101"/><path d="M177.49,185.79h0c-1.28-.46-1.15-.46-2-.2.34-.27.55-.45.18-.7s-.25-.52-.29-.8a18.11,18.11,0,0,0-.26-2.41,3.38,3.38,0,0,1,0-2.22,13.89,13.89,0,0,0,.35-1.75c.17,0,.27-.05.23-.14s-.09,0-.13-.06l-.1.19c-.24-.18-.67-.4.22-.43.26,0,.64.29.76-.06s-.19-.39-.6-.5c-.12,0-.38.15-.36-.06a.26.26,0,0,1,.29-.22c1.42.05.58-.27.33-.49h0c0-.12,0-.26-.12-.34-.81-.5-.24-1-.35-1.52-.08-.34.31-.67-.14-1-.13-.11-.14-.17,0-.25.7-.37.28-.86,0-1.32-.14-.23.13-.33.11-.52a4.26,4.26,0,0,1,.26-1.65c.07-.21.58-.33.2-.64h0a2.24,2.24,0,0,1,.31-1.83c.3-.76-.28-1.8.61-2.4.31-.2.27-.59.23-.94-.07-1,.5-1.74.67-2.65a4.3,4.3,0,0,1,1.3-2.29c.72-.74.2-2.28,1.16-2.93a18.62,18.62,0,0,0,2.36-2.2c.85-.75.68-2.28,1.59-2.79,1.08-.61,1.64-1.45,2.75-2.1.14-.09,0-.37.81,0,.47.22.54.07,0-.24-.24-.15-.66-.39-.46-.38.69,0,.2-.66.46-.63,1.38.14.42-.78.71-1.12.43-.5.1-1.31,1.32-1.5.51-.08,0-.74.08-1.11a1.59,1.59,0,0,1,.79-1.3c.27-.16-.42-.48-.25-.66.49-.52.53-1.21,1.24-1.65.51-.33,0-.85-.05-1.25,0-.68.11-1.32.16-2,.14-1.93.58-3.83.63-5.85a18.23,18.23,0,0,1-.09-2.22,15.38,15.38,0,0,1,.9-4.49,2.11,2.11,0,0,0-.3-2.7c-.19-.22,0-.31.23-.35,1.69-.29,1.52-1.26,1.5-2.3a2.25,2.25,0,0,1,.38-1.61,2.08,2.08,0,0,1,2-.55c.86.08.75-.53.86-1,.19-.73.94-1,1.63-1.32.4-.17.86.32,1.35.71.66.52.7.78.54,1a13,13,0,0,0-1.87,3.14,27.84,27.84,0,0,0-2.34,7.09c-.3,1.6-.56,3.27-.79,5-.21,1.53-.46,3.14-.8,4.75a42.5,42.5,0,0,1-2.68,8.29c-.9,2.08-2,4-3,6.08-.71,1.48-1.54,2.85-2.22,4.29-.5,1.07-1.52,1.65-2.18,2.46s-1.65,1.67-2.45,2.52a10.38,10.38,0,0,0-2,2.87,25.46,25.46,0,0,0-1.8,6.21c-.23,1.43-.63,2.84-.85,4.3a15.38,15.38,0,0,0-.06,2.8,7.71,7.71,0,0,1-.11.84,20.41,20.41,0,0,0,.14,4.55c0,.13.09.28,0,.38-.64.62-.26,1.26.08,1.79a1.2,1.2,0,0,1,.08,1.07c-.1.36-.28.71-.11,1.06,0,.11.08.26-.08.34A1.16,1.16,0,0,1,177.49,185.79Zm-1.37-7.61c.26-.05.22-.14.21-.22s-.08-.05-.13-.07a3,3,0,0,0-.26.22S176.07,178.16,176.12,178.18Zm-.28,2.15c.42-.17.34-.41.26-.63,0-.06-.15-.12-.23-.17.19-.14.13-.23-.2-.26-.09,0-.21-.09-.26,0s.18.22.37.3c-.66.18-.44.46-.32.72A.76.76,0,0,0,175.84,180.33Zm-.09.43s.06,0,.06,0l-.06,0-.07.05Zm.38,1.37c.17,0,.25-.13.18-.17-.39-.27-.15-.63-.47-1-.7.37-.37.69-.15,1A.47.47,0,0,0,176.13,182.13Zm0,1.87.31-.6C175.92,183.65,175.77,183.78,176.11,184Zm.36.6s.09-.1.09-.16-.06-.09-.09-.14a1.13,1.13,0,0,0-.29.13C176.12,184.51,176.25,184.55,176.47,184.6Zm.4.54.06,0s0,0,0,0l-.06,0Z" transform="translate(-107.23 -84.51)" style="fill:#010101"/><path d="M175.31,175.84a.12.12,0,0,0,0,.2c.32.12.44-.08.69-.1C175.76,175.93,175.6,175.72,175.31,175.84Z" transform="translate(-107.23 -84.51)" style="fill:#010101"/><polygon points="69.45 101.48 69.41 101.51 69.48 101.51 69.45 101.48" style="fill:#010101"/><polygon points="68.49 101.29 68.47 101.33 68.54 101.31 68.49 101.29" style="fill:#010101"/><polygon points="68.79 84.17 68.81 84.18 68.81 84.17 68.79 84.17" style="fill:#010101"/><polygon points="68.74 84.18 68.79 84.17 68.73 84.14 68.74 84.18" style="fill:#010101"/><path d="M142.79,85.69v0l0,.06,0,0c-1.13,1.38-1,1.41-.52,2.32-.54-.28-1-.53-1.45,0a3.59,3.59,0,0,1-1.58.61,14.68,14.68,0,0,0-4.56,1.93A27.65,27.65,0,0,1,130.87,93,14.74,14.74,0,0,0,128,95.27c-.16-.11-.3-.12-.39,0s0,.13,0,.19l.35-.23c-.06.45,0,1.09-.78.54-.25-.16-.19-.93-.77-.41a.93.93,0,0,0-.1,1.26c.07.12.52,0,.25.33-.12.15-.35.33-.53.2-1.3-.93-.89.17-.91.72h0c-.11.23-.3.47-.26.69.26,1.3-.79,2-1.11,3.05-.21.68-.86,1.23-.64,2,.07.24,0,.37-.17.49-1,.63-.83,1.74-.76,2.65,0,.47-.29.68-.35,1.07a34.57,34.57,0,0,1-.73,3.41c-.11.45-.65.82-.29,1.38v0a12.94,12.94,0,0,1-.25,3.9c-.19,1.75.63,3.45.06,5.22a3.65,3.65,0,0,0,.19,2c.51,1.82.47,3.73.94,5.56a28.9,28.9,0,0,1,.74,5.38c.15,2.14,1.68,3.8,1.86,5.92a30.5,30.5,0,0,0,1.61,6.42,6.16,6.16,0,0,0,1.74,2.62,20.57,20.57,0,0,0,2,1.38c1.55,1.11,4.56.88,7.25,1.18.32,0,.67-.27.83.51.09.43.48.37.51-.15,0-.26,0-.67.2-.55.71.42,1.43-.43,1.65-.27,1.28.8,1.85-.56,2.67-.86,1.31-.47,2.07-1.65,3.72-1.87.7-.11,1-1.23,1.47-1.87a11.3,11.3,0,0,1,2.28-2.45c.46-.34,0-.87.36-1.22,1-1.09,1.67-2.49,2.75-3.53.8-.76.6-1.74.87-2.58.45-1.43,1-2.84,1.35-4.28a47,47,0,0,0,1.93-13.06c0-1.58-.36-3.21-.45-4.76-.19-3.21-.81-6.43-1.14-9.61-.17-1.68-.49-3.45-2.26-4.36-.32-.16-.3-.4-.18-.71a2.86,2.86,0,0,0-.17-2.59,5.79,5.79,0,0,0-1.84-1.74c-1.74-1.13-3.23-2-3.65-4.7-.18-1.15-1.3-1.31-2.14-1.61A11.2,11.2,0,0,1,142,87.52c-.65-.58-.14-1.19.15-1.84.38-.9.86-.9,1.4-.61a54.74,54.74,0,0,1,8,4.81,23.18,23.18,0,0,1,3.67,3.61A19.64,19.64,0,0,1,158,98a36.7,36.7,0,0,1,2.48,9.62,68.18,68.18,0,0,1,.72,12.48,48.09,48.09,0,0,1-1.63,11A46.65,46.65,0,0,1,156,140.2a41.23,41.23,0,0,1-5.46,8.18,20.53,20.53,0,0,1-6.29,5,23.53,23.53,0,0,1-7.67,2.06,36.44,36.44,0,0,1-5.22.34,11.91,11.91,0,0,1-2.88-.41,8.36,8.36,0,0,1-5.62-4.93,39.63,39.63,0,0,1-1.39-3.74c-1.95-5.63-2.3-11.51-3.15-17.21a76.09,76.09,0,0,1-.89-15.86,35.93,35.93,0,0,1,2.44-10.49,46.2,46.2,0,0,1,2.83-6.27,18.35,18.35,0,0,1,1.23-1.69,32.65,32.65,0,0,1,8.16-7.73,1.93,1.93,0,0,1,.85-.44c1.67,0,2.9-1,4.1-1.75,1.69-1.08,3.54-.55,5.26-.7C142.87,84.47,143.81,84.86,142.79,85.69ZM128,94c-.29-.12-.41.06-.51.21s0,.13,0,.2c.18,0,.37-.09.55-.15C128.08,94.23,128,94.06,128,94Zm3.76-2.78c-.59-.21-1,.21-1.29.57a1,1,0,0,0-.12.44c-.37,0-.47.19-.29.54.05.09,0,.29.2.22s.23-.45.22-.74c.77.36,1.07-.18,1.45-.61A.57.57,0,0,0,131.77,91.2Zm.83-.42s-.07,0-.09,0,0,.07,0,.1h.13ZM135,89c-.12-.17-.37-.16-.43,0-.34.67-1.18.77-1.58,1.46,1.07.31,1.45-.31,2-.84A.46.46,0,0,0,135,89Zm3.85-1.27c-.42,0-.71,0-1.34,0C138.2,88.12,138.48,88.22,138.87,87.72Zm1.23-.67a1.35,1.35,0,0,0-.36-.07,1,1,0,0,0-.29.18c.11.1.21.26.33.28S140,87.32,140.1,87.05Zm1.17-.63a.25.25,0,0,0,0-.07h-.08l0,.08Z" transform="translate(-107.23 -84.51)" style="fill:#010101"/><path d="M125.7,98.48c.11,0,.26-.28.22-.36-.18-.37-.52-.1-.79-.19C125.36,98.08,125.28,98.56,125.7,98.48Z" transform="translate(-107.23 -84.51)" style="fill:#010101"/><polygon points="35.95 2.02 36.01 2.07 36.03 2 35.95 2.02" style="fill:#010101"/><polygon points="35.48 3.11 35.55 3.12 35.52 3.04 35.48 3.11" style="fill:#010101"/><polygon points="13.6 28.18 13.59 28.17 13.59 28.19 13.6 28.18" style="fill:#010101"/><polygon points="13.66 28.16 13.6 28.18 13.67 28.24 13.66 28.16" style="fill:#010101"/><path d="M133.38,153.78h0c-1.19-.79-1.23-.85-2.21-.86.36-.18.69-.26.3-.66s-.17-.63-.14-.91a21.85,21.85,0,0,0,.49-2.46,2.21,2.21,0,0,1,.86-2c.58-.34.75-.89,1.21-1.26.24.12.4.16.38,0a1.8,1.8,0,0,0-.17-.14l-.22.09c-.26-.34-.8-.84.49-.21.38.19.82.73,1.13.52s-.12-.47-.68-.88c-.16-.11-.6-.15-.5-.31s.2-.14.5,0c2.07,1.11,1,.21.67-.17l0,0h0c0-.12.1-.21-.06-.38-1-1,0-1,0-1.56,0-.34.65-.35,0-1-.18-.18-.17-.24.07-.21,1.18.14.62-.57.28-1.09-.18-.28.27-.21.25-.38a1.9,1.9,0,0,1,.49-1.25c.11-.15.95-.05.31-.46h0c-.56-.66,0-1,.22-1.41s-.07-.65-.23-1-.21-.58.39-.85c.4-.19.12-.47-.12-.69-.69-.6-.28-1.24-.8-1.82a1.5,1.5,0,0,1-.37-.87,4.65,4.65,0,0,1,.11-1c.09-.44-.41-.67-.93-.89s-1-.42-.84-.92c.31-1-.24-1.78-.43-2.7s-2.32-1.16-2.18-2.41c.17-1.42-.38-2.6.24-4.21.08-.19-.41-.21,1-.74.77-.29.71-.45-.2-.18-.44.14-1.17.37-.91.19.84-.61-.4-.63,0-.85,1.82-1.08-.2-.89-.12-1.41.11-.69-1-1.17.54-2.14.63-.38-.53-.62-.71-1a1.18,1.18,0,0,1,.31-1.57c.31-.26-.87-.28-.73-.52.43-.69.19-1.4,1.06-2,.64-.42-.37-.82-.5-1.24a7.06,7.06,0,0,1-.16-2.09,9.43,9.43,0,0,1,.59-3c.33-1,.68-1.89,1.08-2.95a9.27,9.27,0,0,1,.74-2.23,11.89,11.89,0,0,1,2.86-3.42c.68-.46,1.29-.92.61-2.52-.12-.28.06-.28.35-.17,1.89.68,2-.3,2.25-1.23.26-1.11,1-1.84,2.9-1,.79.35.85-.24,1.07-.59.39-.58,1.15-.64,1.86-.74.4-.06.64.43.95.84s.39.79.21.95a16.38,16.38,0,0,0-2.3,2.72c-1.49,2-3,4.06-4.21,6.08a35.16,35.16,0,0,0-2.16,3.69c-.21.44-.47,1.1-.68,1.66s-.41,1.18-.57,1.79a21.64,21.64,0,0,0-.76,6.61,13.44,13.44,0,0,0,1.06,5.3,8.51,8.51,0,0,0,2.54,3.16c.88.69.83,1.88,1.32,2.84,1.13,2.29.85,5.25,1.33,7.93a20.88,20.88,0,0,1,.34,3.82,21.11,21.11,0,0,1-.46,3.84,14.6,14.6,0,0,1-2.11,4.32A17.44,17.44,0,0,0,139,146.3c-.1.27-.4.42-.53.65a13.7,13.7,0,0,0-1.93,3.76c0,.11,0,.27-.21.28-1.15.08-.89.82-.7,1.39.15.39-.08.62-.36.84a1.83,1.83,0,0,0-.68.71C134.54,154.1,134,154.34,133.38,153.78Zm1.32-7.22c.4.15.38,0,.39,0s-.1-.09-.15-.14a3.94,3.94,0,0,0-.47,0A2.09,2.09,0,0,0,134.7,146.56Zm-1.29,1.64c.65.14.64-.12.62-.37,0-.06-.16-.2-.24-.3.32,0,.27-.1-.18-.37-.12-.08-.25-.23-.37-.19s.17.32.4.53c-1-.32-.8.09-.73.4A1.53,1.53,0,0,0,133.41,148.2Zm-.31.31s.09,0,.1,0,0,0-.07-.06H133Zm0,1.45c.24.09.39,0,.31,0-.42-.47.07-.64-.24-1.12-1.1-.14-.78.37-.6.78A.94.94,0,0,0,133.06,150Zm-.7,1.68c.18-.13.31-.21.6-.39C132.22,151.21,132,151.27,132.36,151.64Zm.24.71c.06,0,.15,0,.18-.09s0-.12-.07-.18a2,2,0,0,0-.41,0C132.2,152.12,132.35,152.22,132.6,152.35Zm.33.66H133a0,0,0,0,0,0,0l-.07,0Z" transform="translate(-107.23 -84.51)" style="fill:#010101"/><path d="M134.43,144c-.12,0-.16.1-.06.17.43.33.68.27,1.06.43C135.06,144.38,134.9,144.07,134.43,144Z" transform="translate(-107.23 -84.51)" style="fill:#010101"/><polygon points="25.27 69.21 25.21 69.22 25.28 69.25 25.27 69.21" style="fill:#010101"/><polygon points="24.27 68.73 24.25 68.76 24.33 68.77 24.27 68.73" style="fill:#010101"/><polygon points="29.55 53.79 29.58 53.8 29.58 53.8 29.55 53.79" style="fill:#010101"/><polygon points="29.46 53.77 29.55 53.79 29.45 53.74 29.46 53.77" style="fill:#010101"/></svg>