<svg id="Layer_1" data-name="Layer 1" xmlns="http://www.w3.org/2000/svg" viewBox="0 0 159.76 78.47"><path d="M161.12,195.28l0,.06,0,.1,0-.09c-.17,1.57-.47,2.36-.44,3a3.84,3.84,0,0,0,.83,2.06c-1-.51-1.56-1.08-2.31-.08-.58.76-1.67.66-2.52.68a20.12,20.12,0,0,1-3.67-.35l-1.78-.31c-.62-.12-1.1-.13-2-.35-.36-.07-.73-.16-1.1-.27a7.66,7.66,0,0,1-1.07-.46,9.69,9.69,0,0,1-1-.58c-.31-.24-.61-.48-.9-.74a6.75,6.75,0,0,1-1.41-1.7,5.79,5.79,0,0,1-.76-1.82c-.15-.52-.27-1-.38-1.43s-.28-.88-.41-1.3a14.71,14.71,0,0,1-.55-2.48c.35-.16.53-.34.37-.54s-.22,0-.34-.05l0,.59c-.65-.29-1.74-.56.09-1.3.55-.21,1.61.23,1.56-.73,0-.66-.72-.84-1.67-.83-.26,0-.67.64-.79.09a.61.61,0,0,1,.42-.76c3-.87,1-1.08.31-1.5h0c-.16-.26-.17-.65-.5-.77-2-.73-1.19-2.41-1.78-3.6-.37-.8.11-1.87-1-2.44-.32-.17-.36-.32-.16-.62,1-1.41-.13-2.34-.89-3.23-.4-.46,0-.93-.19-1.36a17,17,0,0,1-.88-4.14c-.07-.56.59-1.28-.24-1.69v0c-1-1.33-1-3.07-1.19-4.53-.27-2.14-2-4-1.29-6.34A4.58,4.58,0,0,0,133,153a15.72,15.72,0,0,1-.57-3.47,35,35,0,0,0-.13-3.55,18.34,18.34,0,0,1,.21-3.47c.12-.57.25-1.14.39-1.7a10.92,10.92,0,0,1,.53-1.65,9.56,9.56,0,0,0,.5-2c.16-.65.27-1.31.4-2a9.43,9.43,0,0,1,.61-2,5.69,5.69,0,0,1,1.11-1.83l.74-.87.8-.83a17.83,17.83,0,0,1,1.64-1.61,18.28,18.28,0,0,1,1.82-1.44c.32-.22.67-.41,1-.61a6.45,6.45,0,0,1,1.05-.53c.41-.15.79-.36,1.2-.51l1.25-.47,2.17-.73a15.33,15.33,0,0,1,4.37-.9c3.39-.09,6.76-.51,10.13-.19.4,0,.87-.24,1,.54.06.43.51.4.63-.11.05-.25.1-.66.34-.52.78.48,1.86-.22,2.12,0,1.28,1,2.41,0,3.6,0,1.71.16,3.54-.33,5.2.83.65.48,1.94.07,3.05.44a4.4,4.4,0,0,1,1.31.7,6.69,6.69,0,0,1,.63.76,5.8,5.8,0,0,1,.36.83,4.92,4.92,0,0,1,.22,1.55c0,.69.69.76.74,1.38.08,1.84.44,3.66.07,5.41-.28,1.26.43,2.13.62,3.19.29,1.77.42,3.57.57,5.36.47,5.33.26,10.66.41,16,.06,1.89.42,3.88.38,5.76-.1,3.87.09,7.78-.53,11.65a12.11,12.11,0,0,0-.24,3.12,6.71,6.71,0,0,0,1.33,3.33c.28.49.05.88-.37,1.22a8.38,8.38,0,0,0-2.65,3.34,11.56,11.56,0,0,0-.74,1.87c-.21.67-.49,1.29-.74,2-1.24,3.15-3.95,5.76-7.72,4.26a2,2,0,0,0-1.85.11c-.51.31-1,.77-1.45,1.11-1.64,1.14-3.63,1-5.53.75-1.12-.18-1-1.42-1.2-2.51-.24-1.51,0-1.87.66-2a19.64,19.64,0,0,0,8.27-3.58A12.57,12.57,0,0,0,175.8,183l.2-1,.12-.49c0-.16.06-.41.09-.61.12-.85.21-1.73.31-2.6.19-1.76.36-3.54.51-5.32.4-4.64.85-9.3,1.18-14,.29-4.1.56-8.2.69-12.29.13-3.6.17-7.2.06-10.77-.07-1.77-.17-3.55-.38-5.27a22.28,22.28,0,0,0-.42-2.47,10.78,10.78,0,0,0-.3-1.07,2.41,2.41,0,0,1-.14-.32c-.06-.06-.1-.14-.16-.19l-.05,0a4.06,4.06,0,0,0-1.26-.55,15.18,15.18,0,0,0-1.9-.39,34.69,34.69,0,0,0-4.13-.33,67.3,67.3,0,0,0-8.5.36,64.93,64.93,0,0,0-11.17,2.11c-1.33.39-2.76.66-4,1a8.16,8.16,0,0,0-3.07,1.54c-4.4,3.52-6.85,9.81-6.7,16.14a38.85,38.85,0,0,0,.41,4.3c.12.72.2,1.44.35,2.15l.5,2.12c.28,1.42.79,2.81,1.21,4.2s1,2.85,1.45,4.28c1.34,3.84,2.2,7.81,3.19,11.71a58.38,58.38,0,0,0,2.46,7.14c.28.72.28,1.47.52,2.14a29.65,29.65,0,0,0,2.09,5.08c.1.17.2.36.31.52l.33.44c.11.13.22.3.33.41l.35.3a2.2,2.2,0,0,0,1.34.55c.16,0,.39-.12.42.18s.39.78.68,1a1.92,1.92,0,0,0,1.05.29,4.28,4.28,0,0,0,2.1-.73,2.36,2.36,0,0,1,2.24-.1,3.25,3.25,0,0,0,2,.39c.18-.06.44.08.61.49C160.75,193.8,161.38,194.29,161.12,195.28Zm-17.48-5.45c.5-.35.31-.55.19-.75s-.21,0-.32-.05a5.82,5.82,0,0,0-.34.77A1.73,1.73,0,0,0,143.64,189.83Zm2.54,5.79c.43-1.13-.21-1.46-.7-1.94-.13-.12-.47-.09-.72-.13.17-.59-.07-.73-.82-.45-.21.08-.54,0-.54.31.07.56.74.4,1.25.35-.51.65-.56,1.13-.33,1.5a3.42,3.42,0,0,0,1.1.87C145.51,196.19,146.12,195.8,146.18,195.62Zm.92,1.16c0-.06,0-.16,0-.19s-.12,0-.18,0l0,.25Zm4.34,1.09c.06-.44-.16-.71-.33-.57a1.57,1.57,0,0,1-1.51.13,5,5,0,0,0-1.67-.33c.12,2.19,1.93,2,2.87,1.71A1.1,1.1,0,0,0,151.44,197.87Zm5.14,1a17.19,17.19,0,0,1-1.56-1C155.5,199.27,155.88,199.72,156.58,198.89Zm1.74-.84c-.13-.08-.28-.25-.43-.26s-.26.15-.4.23c.11.27.19.65.35.77S158.19,198.61,158.32,198.05Zm1.43-1.1s0-.13-.06-.16-.06,0-.09,0l0,.16Z" transform="translate(-81.08 -122.54)" style="fill:#010101"/><path d="M140,184.42a.37.37,0,0,0,.16.51c.73.06.85-.51,1.34-.73C141,184.35,140.51,183.9,140,184.42Z" transform="translate(-81.08 -122.54)" style="fill:#010101"/><path d="M162.08,196.94l.13.07-.05-.15Z" transform="translate(-81.08 -122.54)" style="fill:#010101"/><polygon points="80.99 76.85 81.1 76.85 81.02 76.69 80.99 76.85" style="fill:#010101"/><polygon points="54.85 43.8 54.89 43.8 54.88 43.78 54.85 43.8" style="fill:#010101"/><polygon points="54.78 43.85 54.85 43.8 54.73 43.77 54.78 43.85" style="fill:#010101"/><path d="M179.72,189.47v-.07c.88-2.49.87-2.49.8-4.32.23.64.38,1.21.77.43.29-.58.67-.44,1-.45a10.17,10.17,0,0,0,2.81,0,2.41,2.41,0,0,1,2.52.42c.64.6,1.31.57,2,1,0,.33,0,.53.14.46a1.28,1.28,0,0,0,.07-.26l-.21-.21c.24-.45.51-1.28.48.46,0,.52-.39,1.27,0,1.52s.47-.37.62-1.17c0-.22-.14-.74.09-.69s.25.16.24.56c-.13,2.76.29,1.13.56.65v0h0c.13-.07.29,0,.39-.23.58-1.54,1.16-.46,1.73-.71.37-.16.77.51,1.12-.33.11-.25.17-.26.27,0,.5,1.18,1,.38,1.43-.15.21-.28.38.17.57.09a3.17,3.17,0,0,1,1.7,0c.12,0,.15.23.25.34s.15.11.1-.23h0c0-.33.08-.41.19-.44a2.09,2.09,0,0,0,.42,0c.09,0,.11-.14.1-.25a2,2,0,0,1,0-.54.94.94,0,0,1,.79-.95c.44-.14.36-.57.29-.94-.2-1,.48-1.81.46-2.81a4.75,4.75,0,0,1,.92-2.62c.61-1-.76-2.32,0-3.29a10.54,10.54,0,0,0,1.22-3.33c.4-1.24-.69-2.67,0-3.86.75-1.37.94-2.82,1.89-4.19.11-.16-.17-.4.84-.33.56.05.58-.16-.05-.28-.31-.06-.83-.14-.61-.22.71-.27-.05-.83.24-.91,1.46-.42.15-1.05.33-1.55.26-.74-.34-1.52.82-2.22.48-.3-.23-.85-.3-1.29a2.17,2.17,0,0,1,.35-1.77c.21-.28-.56-.38-.46-.64.3-.77.12-1.57.65-2.34.37-.57-.33-.94-.48-1.38-.25-.76-.36-1.51-.58-2.22a5.66,5.66,0,0,0-1-2.22,4.32,4.32,0,0,0-1.21-.71,7.25,7.25,0,0,0-1.66-.47c-.77-.14-1.64,0-2.42-.12-1.62-.24-3.3-.15-5-.46a2.16,2.16,0,0,0-2.64,1c-.15.22-.28.13-.43-.09-.92-1.38-1.9-.86-2.84-.36-1.13.61-2.21.93-3.38-.75-.48-.69-1-.24-1.45-.06a3.26,3.26,0,0,1-2.37-.28c-.46-.16-.41-.82-.49-1.42-.1-.83.12-1,.44-1,1.57,0,3.11-.36,4.67-.54a70.61,70.61,0,0,1,10-.47,30.77,30.77,0,0,1,6.74.87,15,15,0,0,1,2.23.75,8.38,8.38,0,0,1,2.44,1.57l.45.53c.13.19.26.39.37.59a7.31,7.31,0,0,1,.47,1.09,14.48,14.48,0,0,1,.62,2.86c.11.9.17,1.78.21,2.64.06,1.73,0,3.43-.06,5.11-.13,2.66-.53,5.27-.68,7.9a25,25,0,0,0,.2,5.31c.22,1.35-.35,2.62-.5,3.93-.34,3.07-1.92,5.87-2.64,8.89-.33,1.38-.68,2.77-1.17,4.2-.12.36-.25.73-.4,1.1a9.11,9.11,0,0,1-.58,1.25,6.32,6.32,0,0,1-2.28,2.53,4.15,4.15,0,0,1-1.09.38l-1.13.27c-.51.06-1,.11-1.54.13-1,0-2,0-2.9,0a21.37,21.37,0,0,0-3.55.36c-.37.06-.71-.15-1-.15a22.45,22.45,0,0,0-5.66.26c-.16.05-.36.18-.47-.06-.62-1.44-1.45-.71-2.19,0-1,1-1.66-.66-2.53-.62C179.42,191.76,179,190.93,179.72,189.47Zm9.23-1.62c0,.53.15.45.25.43s.06-.16.09-.24-.15-.4-.23-.55S189,187.74,189,187.85ZM186.5,187c.13.91.42.76.69.63.08,0,.16-.29.23-.45.13.41.24.3.34-.38,0-.19.12-.42,0-.54s-.28.34-.4.73c-.1-1.38-.46-1-.78-.78A3.19,3.19,0,0,0,186.5,187Zm-.49-.27a.61.61,0,0,0,0,.14s0-.08.05-.12l0-.15Zm-1.66.57c0,.37.09.57.16.43.4-.8.77-.21,1.2-.83-.29-1.56-.71-.94-1.12-.51A1.69,1.69,0,0,0,184.35,187.32Zm-2.16-.42.61.81C182.64,186.55,182.53,186.18,182.19,186.9Zm-.79.66c0,.08.09.24.15.26s.13-.12.19-.19a2.94,2.94,0,0,0-.08-.68C181.59,186.8,181.51,187.09,181.4,187.56Zm-.75.79a.57.57,0,0,0,0,.14s0,0,0,0l0-.14Z" transform="translate(-81.08 -122.54)" style="fill:#010101"/><path d="M191.71,186.39a.12.12,0,0,0-.23,0c-.14.6.07.86.09,1.33C191.59,187.24,191.84,186.94,191.71,186.39Z" transform="translate(-81.08 -122.54)" style="fill:#010101"/><polygon points="98.63 65.27 98.61 65.18 98.58 65.32 98.63 65.27" style="fill:#010101"/><polygon points="99.12 63.27 99.08 63.24 99.08 63.39 99.12 63.27" style="fill:#010101"/><polygon points="118.05 63.94 118.05 63.97 118.06 63.97 118.05 63.94" style="fill:#010101"/><polygon points="118.02 63.86 118.05 63.94 118.02 63.83 118.02 63.86" style="fill:#010101"/><path d="M202.32,187.75v-.05a4.42,4.42,0,0,0,.61-2.67c.16.4.25.76.54.28s.48-.27.71-.27a8.34,8.34,0,0,0,2,.05,1.76,1.76,0,0,1,1.79.34c.43.41.91.42,1.35.71,0,.23,0,.37.07.32a.57.57,0,0,0,.07-.17l-.14-.16c.19-.29.44-.85.31.34,0,.36-.34.85-.08,1s.35-.22.51-.77c0-.14-.06-.51.11-.47s.17.13.13.4c-.27,1.91.13.8.35.48v0h0c.1,0,.21,0,.29-.14.53-1,.86-.25,1.29-.38s.51.42.84-.15c.1-.17.15-.17.2,0,.23.9.68.36,1.06,0,.2-.17.26.17.42.14a2.32,2.32,0,0,1,1.31.23c.17.07.25.69.51.19h0a.8.8,0,0,1,.78-.16.9.9,0,0,1,.31.14l.12.13c.13.1.25-.09.29-.24s.06-.21.39.06.22-.08.15-.25c-.06-.61.55-1,.64-1.63a2.57,2.57,0,0,1,1-1.56c.61-.54-.41-1.78.28-2.29a5.83,5.83,0,0,0,1.34-2c.48-.77-.39-2,.31-2.71s1.11-1.75,2.16-2.47c.13-.09-.12-.32.84,0,.54.17.58,0,0-.21-.29-.12-.78-.3-.56-.3.72,0,0-.58.33-.57,1.48.06.27-.69.5-1s-.16-1.13,1.11-1.33c.52-.08-.12-.64-.14-.95a1.06,1.06,0,0,1,.61-1.12c.26-.14-.54-.4-.4-.55a2,2,0,0,0,.25-.33,2.26,2.26,0,0,0,.16-.26,2,2,0,0,1,.6-.62c.53-.42-.29-.5-.49-.63a4.23,4.23,0,0,0-1-.6l-.36-.13a2.1,2.1,0,0,1-.39-.14l-1-.39a9.29,9.29,0,0,0-2.25-.57c-.56-.07-1.22.17-1.77.06a17,17,0,0,1-3.44-.62c-.59-.25-1.21-.49-2,1.19-.14.3-.22.17-.27-.14-.38-2-1.15-1.37-1.89-.73s-1.69,1.14-2.17-1.47c-.21-1.09-.64-.51-1-.3-.59.35-1.07-.23-1.57-.82-.28-.33-.14-1.33-.09-2.26.07-1.28.26-1.54.48-1.48a14.75,14.75,0,0,0,3.32.12,46.23,46.23,0,0,1,7,.69,31.44,31.44,0,0,1,4.56,1.16,22.24,22.24,0,0,1,4.1,1.75l.61.36.59.43a7,7,0,0,1,1.06,1,4.29,4.29,0,0,1,1.11,2.51,8.17,8.17,0,0,1-.4,2.76c-.18.59-.36,1.17-.54,1.73-.6,1.78-1.38,3.47-1.88,5.24a13.26,13.26,0,0,0-.56,3.71c0,1-.69,1.73-1,2.6-.75,2.06-2.45,3.67-3.54,5.64-.26.45-.54.91-.85,1.37a7.32,7.32,0,0,1-1.42,1.56,1.94,1.94,0,0,1-.47.34,2.78,2.78,0,0,1-.51.27,3.57,3.57,0,0,1-1.12.25,7.91,7.91,0,0,1-1.18-.06l-.43,0h-.35a29.47,29.47,0,0,1-3.73-.68,11.3,11.3,0,0,0-2.4-.11c-.25,0-.47-.16-.7-.19a13.75,13.75,0,0,0-3.85-.24c-.11,0-.25.09-.32-.07-.37-1-1-.55-1.49-.14-.71.56-1.12-.52-1.71-.53C202.09,189.17,201.83,188.63,202.32,187.75Zm6.49-.67c0,.36.08.31.15.3a.62.62,0,0,0,.07-.16,3,3,0,0,0-.13-.39S208.84,187,208.81,187.08Zm-1.69-.67c0,.61.26.53.46.45,0,0,.12-.19.18-.29.07.28.16.21.25-.24,0-.13.11-.28.05-.36s-.21.21-.31.47c0-.93-.29-.68-.52-.55A1.69,1.69,0,0,0,207.12,186.41Zm-.34-.19s0,.09,0,.09,0-.05,0-.08l0-.1Zm-1.19.31c0,.25,0,.38.1.29.3-.51.55-.11.87-.5-.15-1-.47-.64-.77-.37A1,1,0,0,0,205.59,186.53Zm-1.51-.33.41.54C204.4,186,204.33,185.75,204.08,186.2Zm-.57.4c0,.05.06.15.11.17s.09-.07.13-.11a1.78,1.78,0,0,0,0-.44C203.66,186.13,203.6,186.3,203.51,186.6Zm-.53.48v.09s0,0,0,0l0-.09Z" transform="translate(-81.08 -122.54)" style="fill:#010101"/><path d="M210.85,186.21a.09.09,0,0,0-.17,0c-.14.42,0,.6,0,.93C210.7,186.8,210.9,186.6,210.85,186.21Z" transform="translate(-81.08 -122.54)" style="fill:#010101"/><polygon points="121.25 64.17 121.23 64.11 121.22 64.2 121.25 64.17" style="fill:#010101"/><polygon points="121.61 62.94 121.58 62.92 121.58 63.01 121.61 62.94" style="fill:#010101"/><polygon points="135.5 64.53 135.49 64.55 135.5 64.55 135.5 64.53" style="fill:#010101"/><polygon points="135.5 64.46 135.5 64.53 135.53 64.44 135.5 64.46" style="fill:#010101"/><path d="M220.35,188.57v0a7.46,7.46,0,0,0,.47-2.69c.07.39.11.74.3.25s.28-.29.41-.3c.39,0,.74.15,1.14,0a.67.67,0,0,1,1,.25c.23.38.5.36.74.61,0,.22,0,.35,0,.3s0-.11.05-.16l-.08-.14c.12-.29.29-.82.17.3,0,.34-.23.81-.09,1s.21-.23.32-.75c0-.14,0-.47.08-.44s.09.11.06.37c-.23,1.78,0,.73.18.43v0h0c.06,0,.12,0,.17-.14.35-1,.44-.3.67-.45s.25.35.38-.2c0-.17.07-.18.1,0,.17.78.36.24.5-.1.07-.18.14.12.2.07a.65.65,0,0,1,.66,0c.08,0,.24.56.27.08h0c.17-.48.47-.23.72-.17s.46-.84,1-.22c.18.21.28,0,.36-.17.21-.48.64-.29.89-.64s.6-.29,1-.25.28-1.15.78-1,.84-.17,1.26-.28.21-1.18.73-1.17,1-.32,1.74-.28c.1,0,0-.2.56.29.34.28.39.22,0-.12-.18-.16-.49-.42-.35-.35.49.24.1-.27.3-.17,1,.49.23-.28.41-.35s-.06-.61.83-.42c.39,0-.09-.3-.15-.4s0-.29.3-.49c.17-.1-.48,0-.41-.12.19-.25,0-.38.26-.79s-.38-.14-.53-.15a6.36,6.36,0,0,1-.75-.34,18.24,18.24,0,0,0-2.3-1.14c-.3-.09-.71,0-1-.1a7.24,7.24,0,0,1-1.82-.71c-.29-.22-.6-.43-1.27.61-.12.19-.14.09-.13-.12.05-1.33-.46-1-.94-.66s-1.05.59-1-1.15c0-.73-.29-.39-.51-.28s-.56-.25-.77-.66a3.61,3.61,0,0,1,.18-1.46c.17-.81.31-1,.43-.91a7.41,7.41,0,0,0,1.87.33,22.45,22.45,0,0,1,3.92,1,16.88,16.88,0,0,1,2.47,1.11,15.19,15.19,0,0,1,2.1,1.35,10.6,10.6,0,0,1,.92.78c.15.15.29.29.44.47a5.76,5.76,0,0,1,.49.63,4,4,0,0,1,.68,3l-.18.59a4.89,4.89,0,0,1-.27.57,5.59,5.59,0,0,1-.53.84c-.35.52-.75,1-1.1,1.43a8.63,8.63,0,0,0-.7,1,7.84,7.84,0,0,0-.61,1.08c-.29.57-.94.71-1.4,1-1.1.81-2.6.74-3.76,1.24a29.89,29.89,0,0,1-3.33,1.29,7,7,0,0,1-2.46.11,7.59,7.59,0,0,0-1.59.13c-.14,0-.26-.12-.39-.13a4.84,4.84,0,0,0-2.2.07c-.06,0-.14.11-.17,0-.18-.91-.54-.45-.85,0-.44.6-.62-.41-1-.38C220.15,190,220,189.49,220.35,188.57Zm3.73-1c0,.34,0,.29.08.27a.59.59,0,0,0,0-.15,3.48,3.48,0,0,0,0-.36A1.54,1.54,0,0,0,224.08,187.52Zm-.93-.54c0,.58.12.48.24.4a1.49,1.49,0,0,0,.12-.29c0,.27.08.2.15-.24,0-.12.07-.27,0-.34s-.13.21-.2.46c0-.88-.13-.63-.27-.49A2.48,2.48,0,0,0,223.15,187Zm-.19-.17s0,.08,0,.09a.29.29,0,0,0,0-.08v-.1Zm-.69.37c0,.23,0,.36,0,.27.19-.51.31-.13.51-.54,0-1-.24-.58-.42-.31A1.63,1.63,0,0,0,222.27,187.18Zm-.84-.24.21.5C221.62,186.71,221.59,186.48,221.43,186.94Zm-.35.42s0,.15,0,.16.06-.07.09-.12a2.68,2.68,0,0,0,0-.42C221.19,186.89,221.15,187.06,221.08,187.36Zm-.32.5V188s0,0,0,0l0-.08Z" transform="translate(-81.08 -122.54)" style="fill:#010101"/><path d="M225.28,186.61c0-.09-.07-.09-.1,0a4.56,4.56,0,0,0-.05.87A4,4,0,0,0,225.28,186.61Z" transform="translate(-81.08 -122.54)" style="fill:#010101"/><polygon points="139.32 65.01 139.31 64.95 139.3 65.03 139.32 65.01" style="fill:#010101"/><polygon points="139.59 63.76 139.57 63.74 139.56 63.84 139.59 63.76" style="fill:#010101"/><polygon points="147 64.19 147 64.2 147.01 64.2 147 64.19" style="fill:#010101"/><polygon points="146.99 64.13 147 64.19 147 64.11 146.99 64.13" style="fill:#010101"/><path d="M145,189.65l0,0,0,.08,0-.07c-.3,2.15-.31,2.15.17,3.57-.38-.44-.64-.86-.87-.16-.17.53-.57.5-.9.58a14.07,14.07,0,0,0-2.84.59,3,3,0,0,1-2.64.15,10.67,10.67,0,0,0-2.15-.44c0-.27-.11-.43-.2-.36s0,.15,0,.23l.25.14c-.17.4-.34,1.12-.55-.31-.06-.42.21-1.09-.22-1.23s-.42.37-.47,1c0,.18.24.57,0,.57s-.28-.1-.31-.42c-.23-2.28-.43-.88-.65-.46v0h0c-.13.07-.3,0-.37.24-.43,1.33-1.15.53-1.72.79-.38.17-.84-.35-1.16.38-.09.22-.16.23-.29,0-.59-1-1.07-.25-1.54.21-.24.24-.43-.13-.64-.06a4.28,4.28,0,0,1-2,0c-.28-.05-.53-.71-.81-.13h0a1.5,1.5,0,0,1-1.16.25,10.25,10.25,0,0,1-1.22-.3,8.33,8.33,0,0,1-2.28-.46,2.89,2.89,0,0,1-1-.71,1.62,1.62,0,0,1-.44-1.06c0-.5-.42-.77-.78-1-1-.75-1.16-1.92-1.83-2.78a5.44,5.44,0,0,1-1-2.9c-.12-1.2-1.8-1.77-1.74-3a18.08,18.08,0,0,0-.59-3.7c-.21-1.33-1.66-2.32-1.57-3.74.1-1.6-.23-3.1.15-4.73,0-.19-.27-.35.6-.56.49-.11.45-.31-.12-.26-.28,0-.74.09-.58-.05.52-.46-.28-.81-.06-1,1.13-.79-.15-1.08-.12-1.62,0-.8-.67-1.47.2-2.4.36-.39-.37-.81-.52-1.24a2.38,2.38,0,0,1,0-1.85c.15-.32-.56-.32-.5-.6.17-.83-.07-1.66.37-2.47.31-.59-.34-.95-.47-1.44a14.45,14.45,0,0,1-.36-2.46,12.45,12.45,0,0,1,0-2.79,8.51,8.51,0,0,1,.31-1.48,4.53,4.53,0,0,1,.81-1.59,8.84,8.84,0,0,1,1.86-1.55,11.64,11.64,0,0,1,2.49-1.44,19.25,19.25,0,0,1,5.35-1.21,2.58,2.58,0,0,0,2.65-1.38c.13-.24.29-.17.46,0,1.11,1.22,2,.66,3,.11,1.15-.65,2.34-1,3.51.68.48.69,1,.26,1.49.1a3.24,3.24,0,0,1,2.4.43c.46.21.33.86.34,1.46,0,.83-.2,1-.51,1a25.89,25.89,0,0,0-4.56.3c-3.2.36-6.39.72-9.44,1.37A22.63,22.63,0,0,0,115,150.2a5.25,5.25,0,0,0-.6.37,3.86,3.86,0,0,0-.37.3.44.44,0,0,0-.14.19,3.63,3.63,0,0,0-.18.51,10.93,10.93,0,0,0-.23,1.46,49.06,49.06,0,0,0,.41,9.45,59.26,59.26,0,0,0,1.23,7.6,19.15,19.15,0,0,0,1.88,4.81c.65,1.13.68,2.45,1.09,3.65,1,2.77,1.11,5.85,2.38,8.44a13.56,13.56,0,0,0,1.94,3,.88.88,0,0,0,.62.32,2,2,0,0,1,.5,0l.92-.06c1.68-.15,3.46-.05,5.24-.14a16.94,16.94,0,0,0,3.34-.63c.35-.08.7,0,1,0a20.67,20.67,0,0,0,5.39-1.1c.14-.07.31-.21.46,0,.86,1,1.54.28,2.1-.42.77-1,1.72.18,2.53,0C144.76,187.78,145.31,188.34,145,189.65Zm-8.8,3.09c-.1-.43-.21-.34-.31-.31s0,.14,0,.21a3.64,3.64,0,0,0,.3.41A1.59,1.59,0,0,0,136.18,192.74Zm2.61.25c-.29-.72-.55-.54-.8-.39-.07.05-.11.27-.16.41-.2-.31-.29-.2-.28.36,0,.16-.06.36.06.44s.23-.32.28-.65c.34,1.09.63.71.92.48A2.08,2.08,0,0,0,138.79,193Zm.53.12s0-.11,0-.11,0,.07,0,.11l.07.11Zm1.56-.78c-.06-.3-.2-.44-.24-.31-.24.72-.73.31-1,.9.57,1.19.89.61,1.21.19A1.11,1.11,0,0,0,140.88,192.33Zm2.23-.11-.77-.52C142.74,192.59,142.93,192.86,143.11,192.22Zm.65-.7c-.06-.05-.14-.16-.21-.17s-.1.12-.15.19a3.52,3.52,0,0,0,.22.52C143.72,192.16,143.75,191.92,143.76,191.52Zm.56-.79a.81.81,0,0,0,0-.11s0,0,0,0v.11Z" transform="translate(-81.08 -122.54)" style="fill:#010101"/><path d="M133.58,194.35a.13.13,0,0,0,.24,0c.06-.52-.19-.69-.26-1.08C133.6,193.63,133.37,193.91,133.58,194.35Z" transform="translate(-81.08 -122.54)" style="fill:#010101"/><polygon points="64.29 68.4 64.34 68.47 64.33 68.36 64.29 68.4" style="fill:#010101"/><polygon points="64.26 70.08 64.3 70.1 64.27 69.98 64.26 70.08" style="fill:#010101"/><polygon points="43.97 72.14 43.97 72.11 43.96 72.12 43.97 72.14" style="fill:#010101"/><polygon points="43.98 72.21 43.97 72.14 43.94 72.23 43.98 72.21" style="fill:#010101"/><path d="M120.2,190.45l0,0,0,.06,0,0a4.4,4.4,0,0,0,.55,2.69c-.32-.3-.55-.59-.62,0s-.33.45-.54.55a8.08,8.08,0,0,0-1.88.79,1.82,1.82,0,0,1-1.79.43c-.57-.2-1,0-1.54-.09-.08-.22-.15-.34-.2-.26s0,.12,0,.19l.2.08c-.06.35-.05,1-.43-.18-.11-.34,0-.92-.36-1s-.23.35-.15.91c0,.15.26.45.09.48s-.2,0-.28-.32c-.55-1.85-.45-.67-.53-.29v0h0c-.08.07-.21,0-.21.24-.06,1.17-.69.6-1,.89s-.64-.17-.71.49c0,.2-.07.22-.19.07-.59-.73-.78-.06-1,.42-.1.24-.31,0-.44,0a2.27,2.27,0,0,1-1.3.34c-.19,0-.52-.52-.56,0h0a.85.85,0,0,1-.66.47,8.77,8.77,0,0,1-1.16.11,12.92,12.92,0,0,1-1.61.25,1.46,1.46,0,0,1-1.37-.93c-.13-.45-.63-.58-1-.68-1-.27-1.26-1.11-1.94-1.55a3,3,0,0,1-1.2-1.85c-.22-.86-1.87-.72-2-1.68a8.45,8.45,0,0,0-1-2.51c-.33-.9-1.9-1.11-2-2.17s-.6-2.15-.37-3.46c0-.15-.32-.16.59-.62.51-.26.44-.39-.17-.15-.29.12-.78.34-.62.18.51-.52-.38-.48-.16-.68,1.13-1-.29-.71-.32-1.12,0-.58-.91-.8,0-1.79.36-.4-.52-.44-.73-.69a1.23,1.23,0,0,1-.22-1.38c.13-.29-.73-.16-.72-.44.08-.76-.35-1.51.3-2,.49-.32-.13-.85,0-1.29a3.81,3.81,0,0,1,1.33-1.75c.23-.18.46-.36.71-.53l.67-.4a12.68,12.68,0,0,1,1.25-.57c.84-.34,1.68-.61,2.49-1a13.11,13.11,0,0,1,1.69-1,12.9,12.9,0,0,1,3.69-.88c.7,0,1.38.05,1.65-1.85,0-.34.18-.24.34,0,1,1.78,1.58,1,2.17.13.69-1,1.47-1.6,2.61.87.47,1,.76.36,1.07.07.52-.49,1.15,0,1.77.48.36.28.39,1.31.51,2.26.16,1.31.06,1.59-.16,1.58a10.41,10.41,0,0,0-3.15.61c-2.2.54-4.42,1-6.59,1.44-1.41.32-2.83.54-4.19.85a27.94,27.94,0,0,0-3.38.92,3.7,3.7,0,0,1-.38.14l-.25.1a.94.94,0,0,0-.43.36,1,1,0,0,0,0,.56l.07.3.23.72a31.33,31.33,0,0,0,2,5A10,10,0,0,0,99,184.35c.72.61.83,1.58,1.31,2.32,1.11,1.71,1.43,4,2.72,5.46a9.81,9.81,0,0,0,.87.93c.15.14.31.26.43.36a1.66,1.66,0,0,0,.25.14.62.62,0,0,0,.48,0,1.07,1.07,0,0,0,.21-.13l.1-.07.34-.13a28,28,0,0,1,3.74-.93,12.1,12.1,0,0,0,2.26-.9c.23-.11.5,0,.72-.12a14.06,14.06,0,0,0,3.67-1.38c.09-.06.19-.18.32-.06.75.73,1.13.09,1.44-.49.43-.81,1.25,0,1.8-.24C119.83,189.06,120.29,189.44,120.2,190.45Zm-5.72,3.31c-.14-.33-.2-.25-.26-.21s0,.12,0,.18.18.22.27.3S114.48,193.85,114.48,193.76Zm1.84-.09c-.3-.54-.46-.38-.61-.22s0,.22,0,.34c-.18-.22-.23-.13-.13.33,0,.12,0,.29.1.35s.11-.29.1-.57c.4.84.54.5.7.28A1.62,1.62,0,0,0,116.32,193.67Zm.39,0s0-.08,0-.08a.22.22,0,0,0,0,.09l.07.08Zm1-.78c-.08-.23-.2-.33-.21-.22-.07.59-.46.32-.6.82.57.88.7.38.87,0A1,1,0,0,0,117.68,192.92Zm1.54-.33-.61-.32C119,192.92,119.17,193.11,119.22,192.59Zm.36-.6s-.12-.11-.17-.11-.06.1-.08.16a2.41,2.41,0,0,0,.22.38C119.63,192.49,119.62,192.3,119.58,192Zm.29-.66a.3.3,0,0,0,0-.08h0v.09Z" transform="translate(-81.08 -122.54)" style="fill:#010101"/><path d="M113,195.41c.06.09.17,0,.16-.07,0-.43-.25-.54-.36-.86C112.84,194.81,112.74,195.07,113,195.41Z" transform="translate(-81.08 -122.54)" style="fill:#010101"/><polygon points="39.55 68.85 39.59 68.9 39.57 68.82 39.55 68.85" style="fill:#010101"/><polygon points="39.73 70.13 39.76 70.14 39.72 70.05 39.73 70.13" style="fill:#010101"/><polygon points="26.22 74.47 26.22 74.45 26.21 74.46 26.22 74.47" style="fill:#010101"/><polygon points="26.25 74.54 26.22 74.47 26.22 74.56 26.25 74.54" style="fill:#010101"/><path d="M101.11,193v0a7.39,7.39,0,0,0,.4,2.7c-.2-.35-.34-.67-.36-.14s-.18.36-.3.41c-.36.16-.75.09-1.07.4a.68.68,0,0,1-1,.08c-.34-.29-.59-.19-.9-.36,0-.21-.09-.33-.11-.27a.92.92,0,0,0,0,.17l.11.11c0,.31,0,.87-.25-.24-.07-.33,0-.84-.22-1s-.13.28-.07.81c0,.14.16.45.06.44s-.12-.07-.17-.33c-.34-1.77-.27-.68-.31-.35v0h0c0,.06-.11,0-.12.19,0,1.05-.45.41-.67.62s-.39-.27-.5.3c0,.17-.07.17-.13,0-.29-.77-.47-.23-.69.13-.1.18-.18-.12-.28-.07a1.06,1.06,0,0,1-.85-.08c-.11-.05-.18-.59-.33-.13h0c-.34.41-.65.07-.92-.06s-.93.57-1.21-.2c-.09-.26-.29-.14-.47-.05-.51.27-.87-.1-1.35,0a1.27,1.27,0,0,1-1.15-.55c-.35-.4-1.24.52-1.57-.05s-.83-.74-1.25-1.1-1.47.12-1.76-.56-.87-1.21-.92-2.12c0-.11-.24,0,.32-.56.31-.31.25-.37-.13,0-.19.15-.5.42-.41.28.29-.47-.33-.22-.2-.4.69-.88-.25-.4-.32-.67s-.69-.39-.1-1.18c.26-.27-.4-.27-.53-.5a.62.62,0,0,1,.09-.92c.18-.13-.44-.21-.35-.36.3-.37.33-.84.92-1,.42-.06,0-.49.13-.76a3.09,3.09,0,0,1,.56-1,11.26,11.26,0,0,1,2.4-1.91c.28-.23.48-.63.8-.79a6,6,0,0,1,1.94-.9c.4,0,.78-.09.66-1.33,0-.23.07-.17.2,0,.83,1.05,1,.48,1.24-.1s.63-1.13,1.58.33c.4.61.47.16.61,0s.64-.1,1,.15c.24.15.37.79.55,1.37.23.79.21,1,.09,1a4.94,4.94,0,0,0-1.61.68c-1.12.56-2.25,1-3.33,1.58l-2.1,1a17.17,17.17,0,0,0-1.66.91c-.22.14-.42.29-.6.43l-.38.34a.77.77,0,0,0-.27.62,2.16,2.16,0,0,0,0,.27,2.1,2.1,0,0,0,.23.5,3.63,3.63,0,0,0,.78,1,4.2,4.2,0,0,0,.77.45,3.2,3.2,0,0,0,1,.17c.52,0,.71.48,1.14.64.93.38,1.63,1.48,2.71,1.71a9,9,0,0,0,2.88.17,18,18,0,0,1,1.81.11,2.44,2.44,0,0,0,1.07-.4c.13-.06.29,0,.41,0a4.66,4.66,0,0,0,2.07-.76s.1-.14.18,0c.45.81.65.26.81-.25.22-.72.72.19,1,0C100.85,191.55,101.12,192,101.11,193Zm-3.22,2.17c-.09-.33-.12-.27-.15-.24a.83.83,0,0,0,0,.16,3.1,3.1,0,0,0,.17.32S97.9,195.22,97.89,195.14Zm1.06.22c-.19-.55-.27-.42-.36-.31a2.28,2.28,0,0,0,0,.31c-.11-.24-.13-.15-.07.28a1,1,0,0,0,.07.34c.1.12.06-.25,0-.5.25.85.33.56.42.38A3,3,0,0,0,99,195.36Zm.23.1,0-.08s0,.05,0,.08l0,.09Zm.54-.56c0-.24-.12-.34-.13-.25,0,.55-.26.23-.32.67.35.92.41.48.5.16A1.69,1.69,0,0,0,99.72,194.9Zm.88,0-.36-.41C100.48,195.13,100.59,195.34,100.6,194.86Zm.19-.52s-.07-.12-.1-.13,0,.09,0,.14a2.23,2.23,0,0,0,.14.4C100.84,194.83,100.82,194.65,100.79,194.34Zm.15-.57,0-.09s0,0,0,0v.08Z" transform="translate(-81.08 -122.54)" style="fill:#010101"/><path d="M97,196.38c0,.09.1.06.09,0a3.92,3.92,0,0,0-.22-.84A4,4,0,0,0,97,196.38Z" transform="translate(-81.08 -122.54)" style="fill:#010101"/><polygon points="20.3 71.42 20.33 71.47 20.31 71.38 20.3 71.42" style="fill:#010101"/><polygon points="20.44 72.68 20.46 72.7 20.44 72.61 20.44 72.68" style="fill:#010101"/><polygon points="12.25 73.93 12.25 73.91 12.25 73.91 12.25 73.93" style="fill:#010101"/><polygon points="12.25 73.99 12.25 73.93 12.23 74.01 12.25 73.99" style="fill:#010101"/></svg>