<svg id="Layer_1" data-name="Layer 1" xmlns="http://www.w3.org/2000/svg" viewBox="0 0 120.33 79.09"><path d="M219.92,170.63l0,0-.06,0,0,0c-1.54-2-1.54-1.88-2.48-1a2.93,2.93,0,0,0-.09-2.66,11.67,11.67,0,0,1-.82-3,34.74,34.74,0,0,0-3-8.62c-1.3-2.42-2.78-4.88-4-7.28a34.49,34.49,0,0,0-3.83-5.43c.12-.16.09-.35-.18-.56-.06,0-.17,0-.26,0l.44.61c-.68-.31-1.56-.52-1-1.36.17-.25,1.26.24.4-.83a2,2,0,0,0-1.85-.78c-.16,0,.15.71-.42.15-.24-.25-.58-.63-.43-.8,1.07-1.19-.45-1.22-1.27-1.54h0v0h0a4.57,4.57,0,0,0-1.1-.66,6.88,6.88,0,0,1-2.58-1.25,18.29,18.29,0,0,0-2.41-1.64c-1.12-.57-2.11-1.58-3.4-1.69a1.05,1.05,0,0,1-.84-.42,4.58,4.58,0,0,0-2.11-1.38,14.15,14.15,0,0,0-2.4-.57c-.8-.14-1.18-.6-1.85-.78-1-.29-2-.65-3-.95l-1.48-.5-1.49-.46c-.78-.26-1.44-.9-2.41-.68h0a60.24,60.24,0,0,1-6.84-1.13c-3.08-.48-6.15.11-9.21-.53a10.4,10.4,0,0,0-3.54.17,82.85,82.85,0,0,0-9.68,1.63c-3,.86-6.07,1.62-9.06,2.54-3.55,1.11-6.18,3.52-9.51,5.09a45.78,45.78,0,0,0-9.65,6.53,28.92,28.92,0,0,0-4.28,4.64c-1.25,1.69-2.46,3.36-3.74,5a40.74,40.74,0,0,0-6.56,12.6c-.16.55-.08,1.26-.77,1.22-.39,0-.53.64-.1.92.2.14.55.28.38.59-.62,1-.09,2.66-.29,3a3.73,3.73,0,0,0-.29,2.62c.12.4.24.8.37,1.19a6.8,6.8,0,0,1,.37,1.16,13,13,0,0,0,1.45,3.28,29.5,29.5,0,0,1,1.75,3.31c.41,1,2,1.93,3.11,2.84,1.56,1.27,3.14,2.44,4.58,3.76.73.63,1.29.35,2,.85,2.13,1.52,4.62,2.63,6.78,4,1.58,1,3,1,4.56,1.46,2.54.74,5.1,1.47,7.68,2.05A106,106,0,0,0,159.1,198c2.8,0,5.72-.32,8.49-.49s5.7-.5,8.53-.91,5.64-.89,8.45-1.42c3-.55,6.05-1.29,8.34-3.15a1.86,1.86,0,0,1,1.36-.39c3.28.07,6.19-1.57,8.82-3.38,3.16-2.21,5.92-4.3,9.42-5.53,1.48-.54,2.45-2.09,3.18-3.43.35-.54.6-1.11.94-1.64s.61-1.07.83-1.63a14.25,14.25,0,0,0,1.2-3.47c.21-1.41.78-1.09,1.32-1.13.72-.09.92.74.78,1.92a16.42,16.42,0,0,1-1.15,4.17,20.24,20.24,0,0,1-2.1,3.65,28.15,28.15,0,0,1-5.72,5.86A55.86,55.86,0,0,1,196.94,195a93.73,93.73,0,0,1-16.13,4.33A114.14,114.14,0,0,1,159.29,201a106.62,106.62,0,0,1-18.85-1.9,86.84,86.84,0,0,1-16.13-4.71,55,55,0,0,1-14.65-8.47c-3.43-2.88-6.56-6.46-8.06-11a15.27,15.27,0,0,1-.72-3.48,32.38,32.38,0,0,1-.06-3.41,31.46,31.46,0,0,1,.94-6.71,45.54,45.54,0,0,1,17.17-25.5A56.84,56.84,0,0,1,132.24,128c2.36-1,4.8-1.86,7.23-2.66s4.94-1.41,7.46-1.91a66.88,66.88,0,0,1,13.83-1.51A79.69,79.69,0,0,1,174.63,123a60.88,60.88,0,0,1,9,2.31,67.36,67.36,0,0,1,8.58,3.65,70.84,70.84,0,0,1,10.08,6.11c1,.72,1.8,1.58,2.68,2.35a56,56,0,0,1,11.75,15,4.57,4.57,0,0,1,.66,1.48,23.39,23.39,0,0,0,2.54,7.07c1.37,2.94.9,5.87,1.18,8.77C221.2,170.74,220.87,172.36,219.92,170.63Zm-12.4-27.15c.09-.35-.19-.59-.42-.83-.06-.06-.17-.06-.26-.08.11.28.2.56.33.84A1.5,1.5,0,0,0,207.52,143.48Zm4.59,6.94a3.34,3.34,0,0,0-1-2.24,2.69,2.69,0,0,0-.6-.39c-.12-.56-.37-.8-.77-.7-.12,0-.39-.12-.25.19.25.56.65.57,1,.69-.24,1,.48,1.75,1.15,2.52C211.7,150.58,212.09,150.54,212.11,150.42Zm.7,1.52c0-.05,0-.11,0-.15s-.09-.06-.13-.08l0,.2Zm2.63,4.65c.17-.13.11-.55,0-.69-.82-.82-1.15-2.22-2-3.16-.17,1.59.69,2.51,1.38,3.54C214.93,156.55,215.23,156.75,215.44,156.59Zm2,7c0-.73-.05-1.23-.13-2.32C216.92,162.29,216.81,162.79,217.43,163.57Zm.84,2.29a3.07,3.07,0,0,0,0-.62,3,3,0,0,0-.21-.54,1.52,1.52,0,0,0-.29.53C217.78,165.53,218,165.69,218.27,165.86ZM219,168s.06,0,.07-.07a.3.3,0,0,0,0-.13l-.08-.06Z" transform="translate(-100.79 -121.91)" style="fill:#010101"/><path d="M200.44,138a1.34,1.34,0,0,0,.6.47c.52,0,0-.61.12-.9C201,137.78,200.23,137.43,200.44,138Z" transform="translate(-100.79 -121.91)" style="fill:#010101"/><polygon points="118.26 49.41 118.21 49.53 118.29 49.55 118.26 49.41" style="fill:#010101"/><polygon points="117.08 48.59 117.07 48.7 117.15 48.66 117.08 48.59" style="fill:#010101"/><polygon points="75.33 4.68 75.36 4.67 75.32 4.66 75.33 4.68" style="fill:#010101"/><polygon points="75.37 4.74 75.33 4.68 75.23 4.72 75.37 4.74" style="fill:#010101"/><path d="M133.6,130l0,0,.07-.06-.06.06c2.48-.12,2.42-.3,3.46-1.48-.17.67-.31,1.26.58,1.22.65,0,1,.48,1.42.83a10.48,10.48,0,0,0,3.76,2.48c.64.16,1.24.29,1.72.43a7.64,7.64,0,0,1,2,.85,17.39,17.39,0,0,0,3.61,1.2c0,.3.06.49.26.44s.1-.15.15-.23l-.41-.22c.44-.39,1-1.11.92.49,0,.47-.71,1.11.05,1.39.52.18.89-.28,1.18-1,.08-.19-.28-.69.18-.62a.5.5,0,0,1,.46.55c-.25,2.52.55,1.07,1.1.68v0h0c.26,0,.57.07.77-.14,1.24-1.29,2.46-.14,3.72,0,.89.11,1.5,1,2.56.68.33-.09.48,0,.58.3.45,1.49,1.68,1.49,2.76,1.76.56.13.53.64.91.89a10.47,10.47,0,0,1,2.72,2.89c.29.42.07,1.23.86,1.22h0c1.28.63,1.86,1.87,2.61,2.7a1.84,1.84,0,0,0,.79.56c.29.12.64.2,1,.31a4.83,4.83,0,0,1,2.23,1.24,4.82,4.82,0,0,0,2,.84,6.73,6.73,0,0,1,3,1.84c.76.86,1.33,1.74,1.94,2.56s1,1.65,1.58,2.44,1.11,1.55,1.58,2.35a7.85,7.85,0,0,0,.93,1.27l.95.95a9.27,9.27,0,0,1,.94.78,3.21,3.21,0,0,1,.78.89c1,1.45,3.06,2.16,5.2,3.14,1.18.57,2.47.93,3.7,1.59l.91.49c.28.2.57.41.84.62a7.41,7.41,0,0,1,1.48,1.48,16.54,16.54,0,0,1,1.22,1.7,13.82,13.82,0,0,1,1.06,1.75c.71,1.16,1.1,2.44,1.76,3.56l-1.2.31v-.86c0-.34-.11-.76.22-.8.18,0,.18-.42,0-.55s-.29-.12-.22-.31c.22-.64-.12-1.58,0-1.78.49-1.05-.13-2-.26-3-.17-1.43-.9-2.6-1-4.1-.05-.63-.91-1.31-1.45-1.84-.74-.79-1.6-1.37-2.41-2.14-.4-.39-.81,0-1.21-.35-1.22-.87-2.76-1.78-3.47-3.2a16.34,16.34,0,0,0-1.78-2.21,39.77,39.77,0,0,1-2.31-4.05l-1.59-3c-.57-1-1-2.12-1.52-3a4.84,4.84,0,0,0-1.81-2,11.38,11.38,0,0,0-2.86-1.1,35.68,35.68,0,0,1-4.89-1.37,10,10,0,0,1-2.61-1.54,10.23,10.23,0,0,1-1.9-2.34c-.47-.77-.86-1.49-1.23-2.12a9.27,9.27,0,0,0-1.15-1.59,3.27,3.27,0,0,0-4.15-.86c-.29.17-.47,0-.66-.25a3.07,3.07,0,0,0-2.34-1.31,12.15,12.15,0,0,0-2.83.22,8.48,8.48,0,0,1-3.61-.12,4.83,4.83,0,0,1-3-2.44c-.52-1.07-1.61-1.3-2.5-1.91a5.19,5.19,0,0,1-2.07-4.58c.1-1,.76-.72,1.33-.77.8,0,1,.24,1.05.63a4.62,4.62,0,0,0,1.84,2.67,8.54,8.54,0,0,0,3.28,1.49c2.62.67,5.66.51,9.07,1a16.55,16.55,0,0,1,5.15,1.6,11.28,11.28,0,0,1,2.43,1.71,10.8,10.8,0,0,1,1.86,2.3c.62,1,1.06,1.89,1.5,2.56a5.59,5.59,0,0,0,.64.83,2.76,2.76,0,0,0,.69.54,15.58,15.58,0,0,0,2.37,1.1c.89.34,1.82.67,2.79,1a27.54,27.54,0,0,1,2.75,1.1,8.07,8.07,0,0,1,2.78,2.29,10.42,10.42,0,0,1,1.45,2.86c.33.88.57,1.65.89,2.46,1.17,3.06,2,6,3.6,8.49a8,8,0,0,0,3.15,2.65,16.47,16.47,0,0,1,4.12,2.87,13.19,13.19,0,0,1,3.09,7.38,59.51,59.51,0,0,1,.06,7.54v2.67l-1.08-2.26a13.5,13.5,0,0,0-6.31-6.61,35.69,35.69,0,0,0-6.64-2.15,13.17,13.17,0,0,1-4.5-1.9l-.54-.37-.49-.44a11.56,11.56,0,0,1-.94-.91,12.5,12.5,0,0,1-1.47-2.08,11.45,11.45,0,0,1-.55-1.11,9.47,9.47,0,0,1-.36-1.06c-.19-.71-.34-1.42-.55-2.11a10.58,10.58,0,0,0-1.91-3.68,10.85,10.85,0,0,0-1.2-1.31,4.27,4.27,0,0,0-.62-.46,4.41,4.41,0,0,0-.69-.33,21.13,21.13,0,0,0-3.5-.85,14.09,14.09,0,0,1-4.24-1.38A14.77,14.77,0,0,1,168,150c-.55-.47-1.07-.95-1.57-1.43C165.06,147.3,164,146,162.9,145c-.27-.26-.54-.51-.82-.75l-.92-.77a14,14,0,0,0-1.83-1.26,10.36,10.36,0,0,0-5.34-1c-.65,0-1.26-.24-1.9-.28-1.73-.12-3.53-.26-5.39-.48-.94-.11-1.89-.23-2.86-.38l-.73-.11-.86-.18c-.56-.14-1.11-.29-1.64-.47-.36-.1-.81-.21-1-.53-.87-1.88-2.47-2.24-4-2.74a3.66,3.66,0,0,1-2.1-2,24,24,0,0,0-1.31-2.58,1.06,1.06,0,0,1-.07-1C132.33,130,132.78,129.85,133.6,130ZM149,136.7c.07.49.28.43.47.42s.11-.14.16-.21c-.14-.18-.28-.38-.43-.54A2.07,2.07,0,0,0,149,136.7Zm-4.5-1.33c.15.88.7.84,1.21.79.14,0,.29-.23.44-.35.23.4.44.33.62-.27,0-.17.23-.36.07-.49s-.51.25-.74.58c-.15-1.3-.77-1-1.34-.94A1.41,1.41,0,0,0,144.53,135.37Zm-.75-.42c0,.05,0,.13,0,.14s.06-.06.1-.09l-.05-.15Zm-2.74-.61c-.15.3,0,.56.12.5.86-.35,1.3.43,2.12.11-.09-1.51-.79-1.19-1.56-1.17A1,1,0,0,0,141,134.34Zm-3-2.59c.14.42.22.71.47,1.33C138.83,132,138.89,131.62,138.08,131.75Zm-1.38-.51a.83.83,0,0,0,.07.38c.06.09.22.09.34.12.09-.2.26-.44.25-.59S137.09,131.05,136.7,131.24Zm-1.36-.5a.35.35,0,0,0-.08.1s0,0,0,.06l.12,0Z" transform="translate(-100.79 -121.91)" style="fill:#010101"/><path d="M154.37,135.73a.32.32,0,0,0-.46,0c-.28.53.14.79.16,1.23C154.12,136.49,154.63,136.26,154.37,135.73Z" transform="translate(-100.79 -121.91)" style="fill:#010101"/><polygon points="33.81 7.06 33.84 6.96 33.73 7.01 33.81 7.06" style="fill:#010101"/><polygon points="35.53 6.58 35.52 6.52 35.42 6.6 35.53 6.58" style="fill:#010101"/><polygon points="68.18 22.65 68.16 22.66 68.17 22.67 68.18 22.65" style="fill:#010101"/><polygon points="68.22 22.58 68.18 22.65 68.29 22.63 68.22 22.58" style="fill:#010101"/><path d="M122.63,142.4h0v0c.36-.37.38-.4.29-.73.15.12.23.24.43.1s.36-.06.54,0c.52,0,1,.2,1.54.25a2,2,0,0,1,1.33.51c.28.29.62.44.89.71-.06.09-.07.16,0,.17s0,0,.08-.06l-.07-.12c.18-.07.45-.24.16.26-.09.16-.38.28-.24.46s.27,0,.48-.18c.06-.06.06-.26.17-.18a.15.15,0,0,1,0,.22c-.56.79-.09.43.13.36h0c.07,0,.12.09.22,0,.59-.29.62.23.93.35s.19.42.57.31c.12,0,.15,0,.13.1-.13.53.28.5.64.54.18,0,.09.22.19.29a2,2,0,0,1,.65.83c.07.12-.14.43.2.38h0c.47.15.54.62.66,1s.95.74.69,1.42c-.09.23.09.4.25.55.45.45.4,1.06.66,1.57a2.26,2.26,0,0,1,.13,1.6c-.13.62.65,1.17.31,1.82a19.85,19.85,0,0,0-.63,1.94c-.22.68,0,1.43-.43,2.08-.11.18-.2.36-.29.54s-.18.32-.34.68a7.37,7.37,0,0,1-.44.8l-.23.34s-.06.14-.12.13l-.2-.14c-.13-.09-.26-.06-.32-.4s-.13-.24-.17-.06,0,.25-.1.15c-.2-.31-.56-.25-.63-.34-.08-.53-.49-.27-.72-.44s-.8-.21-.92-.77c0-.23-.43-.14-.65-.22a1.13,1.13,0,0,1-.7-.62c-.07-.17-.34.09-.42,0-.24-.36-.65-.56-.74-1s-.47-.24-.7-.37a5.48,5.48,0,0,1-1-.86,16.37,16.37,0,0,1-2.17-3.16,6.73,6.73,0,0,1-.83-1.22,6.65,6.65,0,0,1-.64-2.89,2.8,2.8,0,0,0,0-.4,1.77,1.77,0,0,0-.07-.5,2.43,2.43,0,0,0-.87-1.12c-.19-.15-.08-.25.14-.3,1.41-.31,1.15-.9.92-1.6s-.36-1.3,1.39-1.16c.74,0,.42-.34.29-.52s.19-.48.46-.87a3.24,3.24,0,0,1,1.32-.51c.76-.24,1-.11,1,.15a8.73,8.73,0,0,1-.2,3.28c-.26.94-.56,1.67-.68,2.22a2.32,2.32,0,0,0-.1.64,4.1,4.1,0,0,0,0,.43l.05.52a15.41,15.41,0,0,0,.47,2.64,15.9,15.9,0,0,0,.92,2.4c.19.37.34.69.52,1a8.73,8.73,0,0,0,.63.91,15.74,15.74,0,0,0,1.57,1.73,14.57,14.57,0,0,0,1.46,1.25l.4.28.34.21a1.39,1.39,0,0,0,.38.17l.1-.28.08-.36a4.37,4.37,0,0,0,.08-1.25c0-.63.05-1.24,0-1.85-.22-1.42.09-2.82-.21-4.21a9.29,9.29,0,0,0-1.54-3.36c-.47-.66-.87-1.39-1.42-2a5.39,5.39,0,0,0-1.23-1c-.14-.09-.21-.26-.34-.35a7.3,7.3,0,0,0-2.21-1.28c-.07,0-.16,0-.19-.11-.18-.51-.6-.45-.92-.42s-.72-.42-1.12-.51C122.55,142.77,122.34,142.58,122.63,142.4Zm4.51,1c0,.16,0,.17.06.18s0,0,.07,0a1.36,1.36,0,0,0,0-.21S127.18,143.42,127.14,143.45Zm-1.1-.75c0,.27.14.28.29.3s.1-.05.15-.08c0,.15.09.14.21,0s.11-.09.08-.14-.18,0-.28.12c.09-.41-.14-.37-.33-.36A.43.43,0,0,0,126,142.7Zm-.22-.16s0,0,0,0l0,0v-.05Zm-.88-.1c0,.09,0,.15.06.13.23-.15.4.05.65,0,0-.46-.32-.34-.55-.29A.25.25,0,0,0,124.94,142.44Zm-1.11-.34a3.36,3.36,0,0,1,.31.24C124.08,142.05,124,142,123.83,142.1Zm-.4.07s0,.06.08.07.06,0,.09,0,0-.12,0-.15S123.48,142.09,123.43,142.17Zm-.37.1a0,0,0,0,0,0,0h0l0,0Z" transform="translate(-100.79 -121.91)" style="fill:#010101"/><path d="M128.69,143.74c0-.05-.07-.09-.11-.06s-.13.28-.21.42C128.47,144,128.65,144,128.69,143.74Z" transform="translate(-100.79 -121.91)" style="fill:#010101"/><polygon points="21.78 20.2 21.77 20.18 21.76 20.2 21.78 20.2" style="fill:#010101"/><polygon points="21.97 19.88 21.95 19.87 21.96 19.9 21.97 19.88" style="fill:#010101"/><polygon points="31.1 25.05 31.09 25.05 31.1 25.05 31.1 25.05" style="fill:#010101"/><polygon points="31.13 25.02 31.1 25.05 31.15 25.03 31.13 25.02" style="fill:#010101"/><path d="M140.52,146.53h0v0c.5-.17.53-.19.59-.51.08.16.11.31.34.27a.8.8,0,0,1,.5.19c.45.25.82.59,1.29.84a2.07,2.07,0,0,1,1,1c.14.37.41.62.56,1-.08.07-.12.13-.06.15s.06,0,.09,0l0-.14c.19,0,.51-.07,0,.3-.13.11-.45.13-.38.34s.25.11.52,0c.07,0,.14-.23.21-.12a.16.16,0,0,1-.07.23c-.79.55-.22.36,0,.37h0c.06,0,.08.13.19.12.64-.07.52.41.76.63s.06.46.44.47c.12,0,.15,0,.09.13-.28.46.12.56.44.7.17.07,0,.23.11.32a2,2,0,0,1,.38,1c0,.14-.25.37.09.41h0c.41.26.36.73.39,1.1s.72.93.33,1.52c-.15.2,0,.4.11.59.34.53.16,1.1.33,1.65a2.37,2.37,0,0,1-.2,1.59c-.24.59.42,1.27,0,1.84a14,14,0,0,0-.94,1.79,2.56,2.56,0,0,0-.11.24l0,.13c0,.07,0,.14-.11.19a6.07,6.07,0,0,0-.25.82,5.61,5.61,0,0,1-.29.82,3.61,3.61,0,0,1-.37.66l-.17.2-.87-.92-.73-.72-.53-.53c-.12-.13-.24-.25-.35-.39s-.2-.06,0-.3,0-.2-.14-.06-.16.18-.17.1c0-.26-.38-.2-.38-.3,0-.51-.45-.31-.66-.49s-.78-.29-.84-.86c0-.25-.41-.19-.63-.3a1.13,1.13,0,0,1-.62-.73c0-.18-.35,0-.42-.1-.18-.39-.54-.69-.53-1.19s-.42-.32-.62-.51a6,6,0,0,1-.79-1,8.1,8.1,0,0,1-.87-1.71q-.33-.87-.66-1.83a6.49,6.49,0,0,1-.62-4.26c.12-.51.26-1-.73-1.64-.18-.12-.09-.19.1-.24,1.23-.33.93-.9.66-1.58s-.34-1.63,1.34-1.57c.71,0,.48-.38.47-.69,0-.52.52-.75,1-.91.3-.09.76.33,1.24.65.64.46.73.63.64.72a4.31,4.31,0,0,0-.8,1.81,18.81,18.81,0,0,0-.75,4.3,16.32,16.32,0,0,0,0,2.8,15.34,15.34,0,0,0,.58,2.49,11.17,11.17,0,0,0,.87,2.1,10.89,10.89,0,0,0,1.22,1.92,12.83,12.83,0,0,0,2.85,2.63l.39.26a1,1,0,0,0,.22.13.66.66,0,0,0,.26.1s.05,0,.06,0a1,1,0,0,0,0-.18.32.32,0,0,1,0-.23.41.41,0,0,0,0-.16l.05-.23a3.78,3.78,0,0,0,.06-.47c0-1.46.59-2.81.58-4.26a11.24,11.24,0,0,0-.74-3.71c-.3-.79-.49-1.63-.83-2.43a7.07,7.07,0,0,0-.86-1.38,3.68,3.68,0,0,1-.21-.45,9.41,9.41,0,0,0-1.64-2.07c-.06-.05-.14-.09-.13-.18,0-.53-.38-.66-.7-.77s-.48-.7-.81-1C140.28,146.82,140.18,146.56,140.52,146.53Zm3.74,2.8c-.11.13,0,.16,0,.19s.05,0,.08,0,0-.15.06-.21Zm-.74-1.11c-.12.25,0,.33.14.4s.12,0,.18,0c0,.14,0,.16.21,0s.13,0,.12-.11-.18,0-.3,0c.23-.35,0-.39-.17-.46C143.68,148.08,143.54,148.18,143.52,148.22Zm-.15-.23s0,0,0,0h0V148Zm-.77-.44c-.06.08,0,.16,0,.15.27,0,.33.21.61.22.14-.44-.16-.44-.39-.48A.26.26,0,0,0,142.6,147.55Zm-.86-.76c.06.11.1.18.18.35C142,146.86,142,146.75,141.74,146.79Zm-.4-.1s0,.07,0,.09a.13.13,0,0,0,.09,0c0-.05,0-.11,0-.15S141.43,146.63,141.34,146.69Zm-.37-.08v0h0Z" transform="translate(-100.79 -121.91)" style="fill:#010101"/><path d="M145.61,150.14s0-.12-.09-.1c-.21.07-.21.22-.34.33C145.32,150.27,145.5,150.31,145.61,150.14Z" transform="translate(-100.79 -121.91)" style="fill:#010101"/><polygon points="39.81 24.34 39.8 24.32 39.79 24.33 39.81 24.34" style="fill:#010101"/><polygon points="40.13 24.14 40.11 24.13 40.1 24.15 40.13 24.14" style="fill:#010101"/><polygon points="46.89 32.21 46.88 32.21 46.88 32.22 46.89 32.21" style="fill:#010101"/><polygon points="46.92 32.19 46.89 32.21 46.94 32.21 46.92 32.19" style="fill:#010101"/><path d="M154.54,152.12h0v0c.52-.12.55-.15.65-.46.06.16.06.31.31.28a.78.78,0,0,1,.48.19,14.44,14.44,0,0,0,1.27.8,1.82,1.82,0,0,1,1,.89c.14.36.42.59.58.93-.09.09-.13.16-.07.17s.06,0,.1,0l0-.13c.22,0,.57-.16.06.3-.15.14-.5.2-.43.42s.27.07.57-.09c.08,0,.17-.26.24-.15s.05.14-.08.24c-.9.71-.25.42,0,.4h0c.07,0,.1.12.21.09.72-.17.59.35.86.55s.06.46.51.43c.14,0,.16,0,.09.13-.34.52.14.56.51.69.19.06,0,.23.12.33a1.73,1.73,0,0,1,.42,1c0,.15-.33.4.08.43h0c.48.27.39.78.37,1.19s.73,1.09.09,1.65c-.2.19-.09.41,0,.62.23.59-.12,1.12-.09,1.68a2.53,2.53,0,0,1-.54,1.48c-.35.52.14,1.24-.35,1.73a9.31,9.31,0,0,0-1,1.61c-.34.59-.26,1.32-.68,1.87-.53.83-.89,1.78-1.28,2.43a9.33,9.33,0,0,1-.64-.82c-.08-.12-.21-.13-.18-.5,0-.22-.05-.29-.13-.11s-.1.25-.13.13c-.1-.38-.45-.4-.48-.53,0-.32-.09-.42-.22-.48s-.29-.09-.37-.2c-.21-.33-.69-.45-.62-1,0-.23-.37-.25-.55-.4a1.08,1.08,0,0,1-.48-.8c0-.18-.35,0-.39-.14-.12-.42-.44-.73-.38-1.22s-.37-.35-.56-.54a6.74,6.74,0,0,1-.72-1.05,13.41,13.41,0,0,1-1.31-3.59,9,9,0,0,1-.46-1.32,8.78,8.78,0,0,1-.18-2.75c.09-.49.2-1-.86-1.49-.19-.09-.11-.16.07-.23,1.18-.43.82-1,.44-1.55s-.63-1.44,1-1.69c.7-.09.38-.44.3-.73-.12-.49.33-.81.79-1.09.26-.15.82.13,1.37.33.74.28.87.42.8.54a5.13,5.13,0,0,0-.41,2c-.16,1.49-.27,3-.28,4.55,0,1,0,2,.05,3a12.84,12.84,0,0,0,.39,2.47,22.36,22.36,0,0,0,1.76,4.3,16.33,16.33,0,0,0,1,1.64,5.23,5.23,0,0,0,.78.95s.08.09.11.08a2.67,2.67,0,0,0,.12-.51c0-.08,0-.13,0-.23s.07-.37.1-.55a19.13,19.13,0,0,1,.47-1.88c.23-1.48.93-2.79,1.05-4.2a9.51,9.51,0,0,0-.52-3.46c-.24-.72-.37-1.5-.69-2.26a5.31,5.31,0,0,0-.89-1.29c-.1-.12-.12-.31-.21-.44a10.14,10.14,0,0,0-1.66-2.06c-.06-.05-.14-.09-.13-.19.06-.58-.35-.7-.67-.83s-.43-.78-.71-1.1C154.27,152.38,154.2,152.11,154.54,152.12Zm3.71,2.78c-.12.15-.06.17,0,.2s.06,0,.1,0,0-.16.06-.23Zm-.76-1.07c-.14.28,0,.34.14.4a.54.54,0,0,0,.19,0c0,.15,0,.16.22,0s.15-.06.14-.13-.19,0-.33.06c.27-.39,0-.41-.15-.46A.73.73,0,0,0,157.49,153.83Zm-.14-.22,0,0h0v0Zm-.78-.4c-.07.08-.06.16,0,.15.3-.06.34.2.63.19.17-.47-.14-.44-.37-.47A.3.3,0,0,0,156.57,153.21Zm-.83-.76a3.62,3.62,0,0,1,.15.36C156,152.51,156,152.41,155.74,152.45Zm-.39-.12s0,.08,0,.1.07,0,.1,0a.37.37,0,0,0,0-.16C155.51,152.25,155.44,152.28,155.35,152.33Zm-.37-.09s0,0,0,0h0Z" transform="translate(-100.79 -121.91)" style="fill:#010101"/><path d="M159.73,155.54s0-.11-.09-.09c-.25.11-.25.27-.4.4C159.4,155.73,159.6,155.75,159.73,155.54Z" transform="translate(-100.79 -121.91)" style="fill:#010101"/><polygon points="53.87 29.94 53.86 29.92 53.84 29.93 53.87 29.94" style="fill:#010101"/><polygon points="54.21 29.77 54.19 29.75 54.18 29.78 54.21 29.77" style="fill:#010101"/><polygon points="61.25 37.61 61.23 37.61 61.23 37.61 61.25 37.61" style="fill:#010101"/><polygon points="61.29 37.58 61.25 37.61 61.31 37.6 61.29 37.58" style="fill:#010101"/><path d="M168.75,160h0v0c.45-.26.47-.29.48-.62.1.15.15.28.37.2a.77.77,0,0,1,.51.09c.47.17.88.43,1.37.59a1.86,1.86,0,0,1,1.11.78c.19.33.48.53.67.85-.07.08-.1.14,0,.16l.09,0-.05-.13c.2,0,.5-.15.1.28-.12.13-.42.19-.34.39s.26.07.5-.08c.07,0,.12-.24.2-.14s.06.12,0,.22c-.71.66-.17.38,0,.36h0c.06,0,.1.11.2.08.62-.17.55.32.81.49s.11.44.49.39c.12,0,.15,0,.1.12-.23.48.18.52.51.61.17,0,.06.22.14.3a2,2,0,0,1,.48.88c0,.13-.22.39.13.38h0c.42.21.43.65.49,1s.83.81.48,1.43c-.12.21.05.4.18.57.37.49.25,1.07.44,1.6a2.27,2.27,0,0,1-.11,1.56c-.23.58.49,1.23.08,1.8a15,15,0,0,0-.87,1.75c-.3.61-.14,1.37-.64,1.91a4.77,4.77,0,0,0-.35.44c-.21.17-.26.41-.39.6-.21.4-.43.79-.64,1.12l-.27-.06a2.3,2.3,0,0,1-.33-.21c-.1-.07-.23,0-.23-.37s-.1-.25-.15-.05-.06.27-.11.17c-.15-.33-.5-.23-.54-.35a.6.6,0,0,0-.13-.32c-.08,0-.16-.07-.23-.08s-.34,0-.44-.08c-.26-.29-.84-.25-.73-1,.06-.28-.43-.17-.64-.28a.84.84,0,0,1-.51-.78c0-.2-.42.09-.46-.05-.11-.43-.47-.7-.36-1.24.1-.39-.44-.28-.64-.44a5.28,5.28,0,0,1-.83-.94,15.58,15.58,0,0,1-1.58-3.26,6.89,6.89,0,0,1-.6-1.22,9.08,9.08,0,0,1-.4-2.69,1.15,1.15,0,0,0-.8-1.37c-.15-.08-.09-.16.05-.24.9-.53.57-1,.24-1.55s-.64-1.36.72-1.72c.58-.14.29-.46.19-.73-.16-.46.19-.8.59-1.1.23-.17.82.06,1.37.21.77.22.88.35.8.47a4.27,4.27,0,0,0-.56,2,11.37,11.37,0,0,0,.21,4.31,19.53,19.53,0,0,0,.86,2.65l1,2.3a42.55,42.55,0,0,0,2,3.93,11.85,11.85,0,0,0,1,1.48l.3.34a1.09,1.09,0,0,0,.18.15,2.67,2.67,0,0,0,.36.22s0-.07.08-.1a3.48,3.48,0,0,0,.12-.49s0-.07,0-.11l0-.25a4.89,4.89,0,0,0,0-.54,16.58,16.58,0,0,1,.25-1.78c0-1.37.64-2.63.54-4a8.78,8.78,0,0,0-1-3.37c-.37-.71-.63-1.48-1-2.19a5.92,5.92,0,0,0-1-1.19c-.11-.11-.16-.28-.26-.39a7.73,7.73,0,0,0-1.81-1.71c-.06,0-.15-.07-.15-.15,0-.53-.46-.57-.77-.62s-.55-.59-.9-.78C168.57,160.35,168.43,160.12,168.75,160Zm4,2c-.09.14,0,.16,0,.19l.08,0a1.77,1.77,0,0,0,0-.21Zm-.86-.95c-.08.26.06.3.19.35s.12,0,.17,0c0,.14.05.15.21,0s.12-.06.1-.12-.17,0-.29.06c.19-.38,0-.38-.21-.41A.51.51,0,0,0,171.86,161.11Zm-.17-.2a.1.1,0,0,1,0,0s0,0,0,0v-.05Zm-.8-.29c0,.08,0,.15,0,.14.26-.09.36.15.62.11.08-.45-.21-.4-.44-.4A.27.27,0,0,0,170.89,160.62ZM170,160a2.35,2.35,0,0,1,.22.3C170.19,160.05,170.15,160,170,160Zm-.4,0s0,.06.06.08.06,0,.1,0,0-.12,0-.15S169.63,159.94,169.55,160Zm-.36,0a0,0,0,0,0,0,0h0l0,0Z" transform="translate(-100.79 -121.91)" style="fill:#010101"/><path d="M174.13,162.63a.07.07,0,0,0-.09-.08c-.21.1-.19.24-.3.37C173.87,162.8,174,162.82,174.13,162.63Z" transform="translate(-100.79 -121.91)" style="fill:#010101"/><polygon points="67.99 37.82 67.98 37.8 67.97 37.82 67.99 37.82" style="fill:#010101"/><polygon points="68.26 37.56 68.24 37.55 68.24 37.57 68.26 37.56" style="fill:#010101"/><polygon points="75.8 44.27 75.79 44.27 75.8 44.28 75.8 44.27" style="fill:#010101"/><polygon points="75.84 44.25 75.8 44.27 75.86 44.26 75.84 44.25" style="fill:#010101"/><path d="M110.06,171h0v0c.5-.19.51-.22.57-.54.08.15.11.29.33.23a.76.76,0,0,1,.49.08,5.33,5.33,0,0,0,1.35.38,2.1,2.1,0,0,1,1.19.34,4.66,4.66,0,0,0,.92.4c0,.11,0,.18,0,.16s0-.05,0-.08l-.1-.08c.13-.14.3-.41.22.17,0,.18-.24.41,0,.51s.25-.09.35-.36c0-.07,0-.26.07-.23s.12.06.1.19c-.14,1,.12.41.27.25v0h0c.07,0,.15,0,.21-.07.31-.55.58-.18.87-.27s.39.18.56-.16c0-.1.08-.11.13,0,.26.45.51.12.71-.13s.19,0,.29,0a2,2,0,0,1,.88-.13c.12,0,.31.3.37,0h0c.25-.36.62-.29.94-.32s.59-.78,1.19-.53c.21.08.33-.12.42-.29.27-.47.78-.55,1.07-1a2.3,2.3,0,0,1,1.16-.75c.27-.09.37-.38.47-.65s.22-.5.52-.59a4.66,4.66,0,0,0,1.51-1c.51-.43.57-1.12,1.07-1.55a4.75,4.75,0,0,0,.38-.4l.16-.23.05,0,.15-.15c.06-.07.19-.18.13-.22s-.14,0,.13-.22.06-.16-.11,0-.21.2-.19.15c0-.21-.22,0-.21-.1-.14-.46-.52-.1-.76-.16s-.78.1-1.13-.32c-.15-.17-.45.08-.67.12a1.34,1.34,0,0,1-.92-.12c-.14-.1-.2.26-.34.22-.4-.13-.82,0-1.21-.29s-.5.17-.74.26c-.41.14-.82.22-1.23.36-.63.2-1.11.38-1.65.52a5.41,5.41,0,0,0-1.49.54c-.33.2-.53.63-.81.8-.61.36-.92.94-1.5,1.25-.3.17-.62.49.44,1.38.2.16.08.16-.15.12-1.51-.27-1.23.42-1,1.09s.18,1.66-1.76,1.36c-.78-.15-.58.32-.67.66-.13.58-.85.7-1.44.65-.34,0-.59-.6-.89-1.09-.4-.68-.45-.87-.38-.91.36-.2.47-.75.62-1.37s.37-1.45.7-2.37a8.4,8.4,0,0,1,1.72-2.88,8.5,8.5,0,0,1,3.71-2.26A9.14,9.14,0,0,1,119,161a5.85,5.85,0,0,1,1.77.1c.55.11.94.26,1.38.38a9.93,9.93,0,0,0,1.3.25c.87.13,1.74.28,2.6.44.69.12,1.37.27,2,.41l.51.12c.18.05.31.06.59.14l1.46.41a12,12,0,0,1-.59,1.85c-.17.44-.32.89-.47,1.36a9,9,0,0,1-1,1.89,10.78,10.78,0,0,1-3.67,3.34,14,14,0,0,1-4.08,2.15,8.88,8.88,0,0,1-3.07.28c-.64,0-1.29,0-1.93,0a5.27,5.27,0,0,1-.57-.14,30.36,30.36,0,0,1-3-.86c-.08,0-.18-.05-.22-.14-.22-.51-.66-.53-1-.58-.53-.1-.71-.66-1.07-.93C109.83,171.31,109.7,171.05,110.06,171Zm4.5,1.31c0,.17,0,.15.1.15s0,0,0-.07a1.21,1.21,0,0,0-.09-.2Zm-1.18-.49c0,.28.16.27.31.26s.09-.07.13-.11c.05.14.11.12.19-.08s.08-.12,0-.16-.15.08-.23.18c0-.42-.18-.32-.34-.29A.47.47,0,0,0,113.38,171.83Zm-.22-.13s0,0,0,0,0,0,0,0v-.05Zm-.84-.08c0,.09,0,.16.05.13.24-.14.38.08.63,0-.06-.44-.29-.33-.51-.28A.25.25,0,0,0,112.32,171.62Zm-1-.49.24.3C111.54,171.15,111.51,171.06,111.31,171.13Zm-.4,0s0,.07.06.08.06,0,.1,0,0-.12,0-.15S111,171,110.91,171.1Zm-.38,0s0,0,0,0h0l0,0Z" transform="translate(-100.79 -121.91)" style="fill:#010101"/><path d="M116,171.93c0-.05-.09-.05-.11,0-.08.21,0,.3,0,.47C115.9,172.23,116,172.13,116,171.93Z" transform="translate(-100.79 -121.91)" style="fill:#010101"/><polygon points="9.34 48.82 9.34 48.8 9.32 48.81 9.34 48.82" style="fill:#010101"/><polygon points="9.66 48.6 9.64 48.59 9.63 48.62 9.66 48.6" style="fill:#010101"/><polygon points="19.09 49.69 19.09 49.71 19.1 49.7 19.09 49.69" style="fill:#010101"/><polygon points="19.08 49.66 19.09 49.69 19.09 49.64 19.08 49.66" style="fill:#010101"/><path d="M126.06,180.41h0v0c.36-.39.35-.43.26-.74.13.11.23.22.39.06a.74.74,0,0,1,.48-.13,5.81,5.81,0,0,0,1.37-.2,2,2,0,0,1,1.22-.14,4.75,4.75,0,0,0,1,.06c0,.1.06.16.1.13a.56.56,0,0,0,0-.1l-.12,0c.08-.17.14-.48.26.09,0,.18-.08.46.13.5s.2-.17.2-.46c0-.08-.13-.23,0-.24s.13,0,.16.15c.18.95.24.35.32.15h0c.06,0,.15,0,.17-.13.12-.63.49-.34.73-.52s.42.06.48-.32c0-.11,0-.13.13-.05.37.36.51,0,.63-.33.07-.15.2,0,.28-.07a2.24,2.24,0,0,1,.82-.36c.11,0,.37.23.35-.1h0c.15-.42.54-.42.84-.53s.45-.89,1.07-.75c.23,0,.31-.16.38-.34.19-.5.67-.66.89-1.09a2.1,2.1,0,0,1,1-.87c.49-.29.21-1.11.77-1.33a4.41,4.41,0,0,0,1.32-1.14c.4-.52-.27-.3,0-.4l0,0c.06-.06,0-.1,0-.14a.29.29,0,0,0-.15-.09l-.48-.13c-.09,0-.2,0-.2-.24s-.1-.16-.14,0,0,.24-.09.18-.42,0-.47,0c-.26-.44-.53,0-.79,0s-.75.23-1.14-.19c-.16-.18-.42.14-.64.2a1.07,1.07,0,0,1-.89,0c-.15-.09-.17.3-.3.27-.4-.09-.79,0-1.2-.2s-.45.22-.66.34c-.37.17-.74.28-1.1.43a14.3,14.3,0,0,0-3,1.41c-.31.24-.52.64-.81.87-.62.47-1.05,1.13-1.67,1.58-.34.24-.69.56,0,1.47.12.16,0,.16-.15.11-1.17-.31-1.07.34-.85.9s.39,1.13-1.26,1.06c-.7,0-.4.36-.32.6.15.42-.25.67-.65,1-.23.18-.83,0-1.4,0-.79-.11-.93-.26-.87-.43.25-.86.32-1.75.6-2.61a11.66,11.66,0,0,1,3-4.78,11.49,11.49,0,0,1,3-2.07,14.33,14.33,0,0,1,3-1,16.46,16.46,0,0,1,5.26-.28c1.36.15,2.67.39,4,.44a4.09,4.09,0,0,0,.5,0h.74c.48,0,1.06,0,1.71-.07a1.09,1.09,0,0,1,.05.38l-.1.53c0,.43-.31.95-.42,1.47a2.34,2.34,0,0,1-.15.37l-.1.24c-.07.16-.15.32-.21.48a6.26,6.26,0,0,1-1.3,2.06c-.55.6-1.19,1.11-1.76,1.67a18.71,18.71,0,0,1-3.47,2.71,10,10,0,0,1-2.75,1c-.59.16-1.17.36-1.76.54a5.21,5.21,0,0,1-.55,0c-1,.15-2,.14-2.93.24-.08,0-.18,0-.25,0-.38-.39-.78-.22-1.13-.12s-.87-.29-1.3-.37C126,180.78,125.76,180.61,126.06,180.41Zm4.52-.58c.06.16.11.13.15.11s0-.06,0-.09l-.15-.15S130.59,179.79,130.58,179.83Zm-1.24,0c.11.25.24.19.37.12s.06-.09.09-.15c.08.11.13.07.13-.14,0-.06,0-.14,0-.16s-.12.13-.15.25c-.14-.4-.28-.24-.42-.15A.43.43,0,0,0,129.34,179.8Zm-.26,0s0,0,0,0a.23.23,0,0,0,0,0l0,0Zm-.79.25c0,.09.07.14.1.1.16-.22.37-.08.55-.28-.21-.39-.38-.19-.57-.06A.3.3,0,0,0,128.29,180Zm-1.08,0,.33.17C127.41,179.89,127.35,179.82,127.21,180Zm-.38.14s.06,0,.09,0,.06,0,.09,0,0-.11-.06-.13S126.87,180,126.83,180.12Zm-.34.14v0h0l0,0Z" transform="translate(-100.79 -121.91)" style="fill:#010101"/><path d="M131.77,179s-.1,0-.11,0c0,.23.12.28.17.45C131.8,179.31,131.89,179.17,131.77,179Z" transform="translate(-100.79 -121.91)" style="fill:#010101"/><polygon points="25.2 58.22 25.19 58.2 25.18 58.23 25.2 58.22" style="fill:#010101"/><polygon points="25.38 57.89 25.36 57.88 25.37 57.91 25.38 57.89" style="fill:#010101"/><polygon points="34.62 55.69 34.62 55.7 34.63 55.7 34.62 55.69" style="fill:#010101"/><polygon points="34.59 55.66 34.62 55.69 34.61 55.64 34.59 55.66" style="fill:#010101"/><path d="M140.11,186h0c.29-.43.29-.49.17-.79.14.08.24.19.39,0a.68.68,0,0,1,.44-.23,7.76,7.76,0,0,0,1.31-.37,1.36,1.36,0,0,1,1.17-.2c.32.15.62.06.93.14,0,.15,0,.24.09.2s0-.09,0-.13l-.11-.07c.08-.23.14-.64.24.15,0,.24-.09.62.11.69s.19-.21.2-.6c0-.11-.12-.33,0-.33s.12,0,.14.23c.16,1.33.23.52.31.25h0c.05-.05.13,0,.15-.16.12-.83.46-.38.68-.58s.39.17.43-.34c0-.15,0-.17.11,0,.38.6.48.07.57-.29,0-.19.18,0,.25,0a1,1,0,0,1,.71-.28c.11,0,.4.41.32,0h0c.06-.52.43-.41.7-.47s.23-1,.93-.68c.26.11.3-.12.32-.33.07-.56.56-.61.69-1.06s.48-.59.91-.73-.1-1.19.54-1.28a3.53,3.53,0,0,0,1.42-.9.83.83,0,0,0,.26-.35l0-.09,0-.05c-.06,0-.05,0-.05-.05s-.23,0-.08-.08a.8.8,0,0,0,.35-.19.59.59,0,0,0,.23-.26s0-.06,0-.11-.17.08.25-.31c.24-.22.15-.22-.12,0s-.33.33-.28.25c.15-.27-.23.05-.17-.06.1-.27,0-.27-.12-.22s-.21.18-.28.16a1.4,1.4,0,0,0-.47,0,.56.56,0,0,1-.54-.24c-.16-.2-.39.14-.59.21a1,1,0,0,1-.84-.06c-.14-.1-.16.3-.28.27-.37-.11-.73,0-1.12-.22s-.41.22-.61.33-.68.28-1,.43a12.83,12.83,0,0,0-2.76,1.41c-.3.24-.51.64-.8.85a21,21,0,0,1-1.73,1.42c-.35.2-.73.44-.17,1.44.1.18,0,.17-.16.09-1.11-.5-1.09.13-1,.71s.17,1.18-1.42.74c-.67-.18-.46.23-.43.48.06.42-.38.55-.84.74-.26.1-.81-.18-1.35-.4-.73-.3-.84-.47-.75-.61.43-.71.67-1.49,1.08-2.21a13.41,13.41,0,0,1,3.35-3.87,14.46,14.46,0,0,1,2.81-1.71,13.21,13.21,0,0,1,2.77-1,16.77,16.77,0,0,1,5-.33c.65,0,1.19.11,1.91.18a12.31,12.31,0,0,0,2.66.05l.32,0,.24.28-.09.58a2.23,2.23,0,0,0,0,.63l0,.34-.08.41a6.3,6.3,0,0,0-.15.71l0,.21-.07.2a1.7,1.7,0,0,0-.09.29c-.1.32-.23.62-.31.95a4.44,4.44,0,0,1-1.19,2c-.55.58-1.19,1.06-1.74,1.61a19.66,19.66,0,0,1-1.57,1.46c-.27.23-.56.43-.84.66s-.62.43-1,.61a7.31,7.31,0,0,1-2.83.75c-.59.08-1.16.25-1.73.37-.18,0-.36-.06-.53-.06-.93,0-1.84-.09-2.73,0-.07,0-.16,0-.22-.05-.36-.51-.72-.3-1-.19s-.8-.35-1.19-.41C140.08,186.42,139.86,186.25,140.11,186Zm4.22-.78c0,.23.09.18.14.17a1,1,0,0,0,0-.12,2.14,2.14,0,0,0-.13-.22S144.34,185.2,144.33,185.25Zm-1.17-.12c.1.33.23.26.35.19a.64.64,0,0,0,.08-.2c.08.15.13.1.14-.19,0-.08,0-.18,0-.22s-.11.17-.14.33c-.12-.53-.26-.32-.39-.21A.72.72,0,0,0,143.16,185.13Zm-.24,0,0,0s0,0,0,0l0-.05Zm-.74.33c0,.12.07.17.09.12.15-.28.35-.11.52-.36-.2-.51-.37-.24-.54-.07A.47.47,0,0,0,142.18,185.41Zm-1,0,.32.18C141.35,185.31,141.28,185.24,141.15,185.44Zm-.34.2s.05.05.08.05.06,0,.08-.05,0-.13-.06-.15S140.84,185.53,140.81,185.64Zm-.32.19a0,0,0,0,1,0,0h0v0Z" transform="translate(-100.79 -121.91)" style="fill:#010101"/><path d="M145.45,184.26c0-.06-.1,0-.1,0,0,.31.11.41.15.64C145.47,184.7,145.56,184.52,145.45,184.26Z" transform="translate(-100.79 -121.91)" style="fill:#010101"/><polygon points="39.23 63.84 39.22 63.83 39.21 63.85 39.23 63.84" style="fill:#010101"/><polygon points="39.37 63.48 39.35 63.48 39.35 63.51 39.37 63.48" style="fill:#010101"/><polygon points="47.93 61.26 47.93 61.28 47.94 61.28 47.93 61.26" style="fill:#010101"/><polygon points="47.9 61.22 47.93 61.26 47.91 61.19 47.9 61.22" style="fill:#010101"/><path d="M155.73,190.07h0c.42-.33.43-.39.4-.72.11.12.18.25.38.09a.69.69,0,0,1,.49-.13,5,5,0,0,0,1.33-.16,1.33,1.33,0,0,1,1.16-.06c.29.19.6.12.9.23,0,.16,0,.26.07.21s0-.08,0-.13l-.1-.08c.09-.24.18-.67.23.18,0,.26-.13.65.07.74s.2-.21.23-.63c0-.11-.09-.35,0-.35s.12.05.14.26c.08,1.42.2.57.29.28h0c.06-.05.14,0,.17-.16.15-.88.48-.38.72-.59s.4.21.46-.33c0-.17,0-.18.11-.05.36.65.5.1.6-.29.06-.2.2.06.27,0a1.07,1.07,0,0,1,.77-.25c.11,0,.4.46.34,0h0c.1-.55.5-.39.79-.44s.36-1.06,1.07-.61c.25.16.32-.09.38-.3.14-.59.67-.57.87-1s.59-.55,1.07-.6c.28,0,.31-.36.35-.63s.1-.51.44-.51a3.32,3.32,0,0,0,1.6-.64,1.41,1.41,0,0,0,.51-.67,1.81,1.81,0,0,1,.55-.67l.2-.18,0,0a.21.21,0,0,0,.15-.09c.15-.12.08-.14,0-.28s-.13,0,0-.21,0-.16-.11,0-.12.2-.12.15-.29,0-.33-.11c-.19-.43-.51-.1-.74-.16s-.75.1-1.07-.31c-.14-.17-.42.08-.63.12a1.1,1.1,0,0,1-.85-.12c-.14-.09-.19.27-.31.23-.38-.12-.76,0-1.13-.26s-.45.19-.66.31-.71.27-1.06.42a17,17,0,0,0-2.86,1.45c-.3.25-.51.68-.81.87a13.23,13.23,0,0,1-1.84,1.33c-.39.16-.79.38-.15,1.55.12.2,0,.18-.18.06-1.27-.71-1.23,0-1.13.61s.09,1.22-1.63.6c-.71-.25-.52.19-.51.45,0,.44-.48.53-1,.69-.28.09-.8-.24-1.32-.51-.71-.36-.81-.54-.72-.69.44-.7.7-1.52,1.11-2.26a13.27,13.27,0,0,1,3.52-4.05,12.65,12.65,0,0,1,3.06-1.72,9.83,9.83,0,0,1,3.09-.63,18.35,18.35,0,0,1,5.23.38c.65.14,1.28.31,1.91.47l.94.23a11.52,11.52,0,0,1,1.31.29l.39.16.2.07c.06,0,.15.05.1.13l-.18.86a4.8,4.8,0,0,1-.08.48l-.06.24,0,.17c0,.23-.06.47-.08.72a6.93,6.93,0,0,1-.62,2.08,4.49,4.49,0,0,1-1.43,2.05c-.64.54-1.38.92-2,1.41a22.24,22.24,0,0,1-3.7,2.37,8,8,0,0,1-2.93.59c-.62.05-1.22.2-1.83.3-.19,0-.39-.09-.57-.1-1,0-2-.26-2.93-.34-.09,0-.19,0-.24-.1-.3-.58-.71-.45-1.07-.4s-.77-.58-1.15-.77C155.59,190.43,155.42,190.21,155.73,190.07Zm4.41,0c0,.24.08.2.13.18s0-.07,0-.11a1.45,1.45,0,0,0-.12-.25S160.16,190,160.14,190Zm-1.16-.25c.06.36.2.31.32.24s.08-.13.11-.2c.07.16.12.11.15-.19,0-.08.06-.19,0-.23s-.12.17-.17.34c-.06-.57-.22-.37-.37-.27A.91.91,0,0,0,159,189.78Zm-.23-.08s0,.05,0,.05,0,0,0-.05l0,0Zm-.8.23c0,.12,0,.19.08.14.19-.27.37,0,.57-.29-.12-.57-.32-.31-.52-.16A.56.56,0,0,0,158,189.93Zm-1-.17.28.25C157.14,189.68,157.1,189.59,156.92,189.76Zm-.39.13s.05.06.08.07l.09,0c0-.06,0-.15,0-.17S156.59,189.78,156.53,189.89Zm-.36.1v0h0l0,0Z" transform="translate(-100.79 -121.91)" style="fill:#010101"/><path d="M161.34,189.05c0-.07-.09,0-.1,0a2,2,0,0,0,.12.69C161.34,189.52,161.44,189.33,161.34,189.05Z" transform="translate(-100.79 -121.91)" style="fill:#010101"/><polygon points="54.94 67.87 54.92 67.85 54.91 67.87 54.94 67.87" style="fill:#010101"/><polygon points="55.17 67.56 55.16 67.56 55.15 67.58 55.17 67.56" style="fill:#010101"/><polygon points="64 66.16 64.01 66.18 64.01 66.17 64 66.16" style="fill:#010101"/><polygon points="63.98 66.11 64 66.16 63.99 66.08 63.98 66.11" style="fill:#010101"/></svg>